<svg width="39" height="39" viewBox="0 0 39 39" fill="none" xmlns="http://www.w3.org/2000/svg">
<path d="M0 19.5C0 30.2696 8.73045 39 19.5 39C30.2696 39 39 30.2696 39 19.5C39 8.73045 30.2696 0 19.5 0C8.73045 0 0 8.73045 0 19.5Z" fill="black"/>
<path d="M19.6966 12.75C20.4341 12.75 21.3586 12.2361 21.9091 11.5509C22.4077 10.93 22.7712 10.0627 22.7712 9.19554C22.7712 9.07777 22.7608 8.96 22.7401 8.86365C21.9195 8.89577 20.9327 9.43108 20.3406 10.1484C19.8732 10.6944 19.4474 11.5509 19.4474 12.4288C19.4474 12.5573 19.4681 12.6858 19.4785 12.7286C19.5305 12.7393 19.6135 12.75 19.6966 12.75ZM17.0999 25.7046C18.1074 25.7046 18.5541 25.0086 19.8109 25.0086C21.0885 25.0086 21.369 25.6831 22.4908 25.6831C23.5918 25.6831 24.3293 24.6339 25.0252 23.6061C25.8042 22.4284 26.1262 21.2722 26.147 21.2186C26.0743 21.1972 23.9657 20.3086 23.9657 17.8141C23.9657 15.6514 25.6277 14.6771 25.7211 14.6022C24.6201 12.9748 22.9478 12.932 22.4908 12.932C21.2547 12.932 20.2472 13.7029 19.6135 13.7029C18.928 13.7029 18.0243 12.9748 16.9545 12.9748C14.9186 12.9748 12.8516 14.7093 12.8516 17.9854C12.8516 20.0195 13.6202 22.1715 14.5654 23.5633C15.3756 24.741 16.0819 25.7046 17.0999 25.7046Z" fill="white"/>
</svg>
