<svg width="14" height="18" viewBox="0 0 14 18" fill="none" xmlns="http://www.w3.org/2000/svg">
<path id="&#239;&#163;&#191;" d="M7.20781 4.15385C7.98438 4.15385 8.95781 3.60458 9.5375 2.87222C10.0625 2.20852 10.4453 1.28163 10.4453 0.354736C10.4453 0.228861 10.4344 0.102988 10.4125 0C9.54844 0.0343293 8.50937 0.606484 7.88594 1.37317C7.39375 1.95677 6.94531 2.87222 6.94531 3.81055C6.94531 3.94787 6.96719 4.08519 6.97813 4.13096C7.03281 4.1424 7.12031 4.15385 7.20781 4.15385ZM4.47344 18C5.53438 18 6.00469 17.2562 7.32812 17.2562C8.67344 17.2562 8.96875 17.9771 10.15 17.9771C11.3094 17.9771 12.0859 16.8557 12.8188 15.7572C13.6391 14.4984 13.9781 13.2626 14 13.2053C13.9234 13.1825 11.7031 12.2327 11.7031 9.56643C11.7031 7.25493 13.4531 6.2136 13.5516 6.1335C12.3922 4.39415 10.6313 4.34838 10.15 4.34838C8.84844 4.34838 7.7875 5.17228 7.12031 5.17228C6.39844 5.17228 5.44688 4.39415 4.32031 4.39415C2.17656 4.39415 0 6.24793 0 9.74952C0 11.9237 0.809375 14.2238 1.80469 15.7114C2.65781 16.9701 3.40156 18 4.47344 18Z" fill="white"/>
</svg>
