<svg width="16" height="16" viewBox="0 0 16 16" fill="none" xmlns="http://www.w3.org/2000/svg">
<path d="M13.4988 14C13.4331 14.0001 13.3681 13.9872 13.3074 13.962C13.2467 13.9369 13.1916 13.9 13.1453 13.8534L2.14532 2.85342C2.05551 2.75889 2.00618 2.63301 2.00785 2.50263C2.00952 2.37225 2.06206 2.24768 2.15426 2.15548C2.24646 2.06328 2.37103 2.01074 2.50141 2.00907C2.63179 2.0074 2.75767 2.05673 2.8522 2.14654L13.8522 13.1465C13.9221 13.2165 13.9697 13.3055 13.9889 13.4025C14.0082 13.4995 13.9983 13.6 13.9605 13.6913C13.9227 13.7826 13.8586 13.8607 13.7764 13.9156C13.6942 13.9706 13.5976 13.9999 13.4988 14Z" fill="#BDBDBD"/>
<path d="M7.74838 9.87032L6.12995 8.25189C6.12067 8.24269 6.10875 8.23663 6.09586 8.23456C6.08296 8.23248 6.06974 8.2345 6.05805 8.24033C6.04636 8.24616 6.03679 8.2555 6.03069 8.26704C6.02458 8.27859 6.02225 8.29176 6.02401 8.3047C6.08935 8.72458 6.2865 9.11282 6.58698 9.41329C6.88745 9.71377 7.27569 9.91092 7.69557 9.97626C7.70851 9.97802 7.72168 9.97569 7.73323 9.96958C7.74477 9.96348 7.75411 9.95391 7.75994 9.94222C7.76577 9.93053 7.76779 9.91731 7.76571 9.90441C7.76364 9.89152 7.75758 9.8796 7.74838 9.87032Z" fill="#BDBDBD"/>
<path d="M8.24875 6.12974L9.86969 7.75005C9.87894 7.75938 9.89089 7.76555 9.90385 7.7677C9.91681 7.76984 9.93011 7.76785 9.94188 7.762C9.95364 7.75616 9.96326 7.74675 9.96938 7.73513C9.97549 7.7235 9.97778 7.71024 9.97594 7.69724C9.91076 7.27679 9.71347 6.88798 9.41261 6.58713C9.11175 6.28627 8.72295 6.08897 8.3025 6.0238C8.28948 6.02179 8.27616 6.02395 8.26444 6.02996C8.25271 6.03598 8.24319 6.04554 8.23723 6.05729C8.23127 6.06904 8.22918 6.08237 8.23124 6.09538C8.23331 6.10839 8.23944 6.12042 8.24875 6.12974Z" fill="#BDBDBD"/>
<path d="M15.3438 8.5425C15.4473 8.38012 15.502 8.19146 15.5014 7.99892C15.5009 7.80638 15.4451 7.61804 15.3407 7.45625C14.5138 6.1775 13.441 5.09125 12.2385 4.31469C10.9063 3.45469 9.43758 3 7.99008 3C7.22699 3.00105 6.46908 3.12547 5.74571 3.36844C5.72546 3.37517 5.70727 3.38698 5.69288 3.40273C5.67849 3.41848 5.66837 3.43765 5.66348 3.45842C5.65859 3.47919 5.6591 3.50086 5.66496 3.52138C5.67082 3.5419 5.68184 3.56057 5.69696 3.57562L7.17321 5.05188C7.18854 5.06724 7.20761 5.07834 7.22855 5.0841C7.24948 5.08985 7.27155 5.09005 7.29258 5.08469C7.79297 4.96274 8.31633 4.97168 8.81227 5.11063C9.30821 5.24959 9.76002 5.51388 10.1242 5.87807C10.4884 6.24225 10.7527 6.69406 10.8916 7.19C11.0306 7.68594 11.0395 8.2093 10.9176 8.70969C10.9123 8.73068 10.9125 8.75268 10.9183 8.77355C10.924 8.79443 10.9351 8.81344 10.9504 8.82875L13.0738 10.9537C13.0959 10.9759 13.1255 10.9889 13.1567 10.9903C13.188 10.9917 13.2186 10.9813 13.2426 10.9613C14.06 10.2646 14.7682 9.44924 15.3438 8.5425Z" fill="#BDBDBD"/>
<path d="M8 11C7.54586 11 7.09764 10.8969 6.68913 10.6985C6.28063 10.5001 5.9225 10.2115 5.64175 9.85454C5.361 9.49758 5.16496 9.08153 5.06841 8.63777C4.97186 8.19401 4.97732 7.73412 5.08437 7.29278C5.08968 7.27179 5.08945 7.24978 5.0837 7.22891C5.07795 7.20804 5.06687 7.18902 5.05156 7.17371L2.96281 5.08403C2.94066 5.06185 2.91099 5.04881 2.87968 5.04748C2.84837 5.04614 2.8177 5.05662 2.79375 5.07684C2.03156 5.72715 1.325 6.5184 0.679061 7.44309C0.565994 7.60537 0.503723 7.7976 0.500162 7.99536C0.496601 8.19312 0.55191 8.38747 0.659061 8.55371C1.48437 9.84528 2.54625 10.9331 3.73031 11.699C5.06437 12.5625 6.4975 13 7.99 13C8.76079 12.9979 9.52658 12.8761 10.26 12.639C10.2804 12.6325 10.2988 12.6208 10.3134 12.6051C10.3281 12.5894 10.3384 12.5702 10.3434 12.5494C10.3485 12.5286 10.3481 12.5068 10.3423 12.4861C10.3365 12.4655 10.3255 12.4467 10.3103 12.4315L8.82687 10.9484C8.81157 10.9331 8.79255 10.922 8.77168 10.9163C8.75081 10.9105 8.7288 10.9103 8.70781 10.9156C8.47606 10.9717 8.23845 11.0001 8 11Z" fill="#BDBDBD"/>
</svg>
