<svg width="39" height="39" viewBox="0 0 39 39" fill="none" xmlns="http://www.w3.org/2000/svg">
<path d="M39 19.5C39 8.73045 30.2696 0 19.5 0C8.73045 0 0 8.73045 0 19.5C0 30.2696 8.73045 39 19.5 39C30.2696 39 39 30.2696 39 19.5Z" fill="#FEE33A"/>
<path d="M19.5144 10.2C14.0385 10.2 9.60156 13.7845 9.60156 18.2033C9.60156 20.9418 11.3191 23.3605 13.8953 24.8024C13.8953 24.8024 13.5432 26.7182 11.5796 28.5526C11.5796 28.5526 11.3849 28.9015 11.966 28.7707C12.5471 28.6398 16.1739 27.3171 17.774 26.0845C17.774 26.0845 18.919 26.2066 19.4915 26.2066C24.9647 26.2066 29.4016 22.6221 29.4016 18.2033C29.4016 13.7845 24.9876 10.2 19.5144 10.2Z" fill="#402D33"/>
</svg>
