<svg width="60" height="60" viewBox="0 0 60 60" fill="none" xmlns="http://www.w3.org/2000/svg">
<path fill-rule="evenodd" clip-rule="evenodd" d="M31.5384 34.1305C37.1948 37.9978 39.2908 42.0877 39.1094 46.3397C16.9674 51.5028 16.8061 24.2092 22.8321 10.1305C24.666 11.3723 24.975 14.6659 24.0077 17.4938C26.0969 15.3678 30.1075 14.6254 32.3244 17.0484C27.8167 18.6614 22.9933 21.4353 23.2889 26.7672C23.5038 29.7705 26.1775 31.9438 30.0269 33.3408C25.4856 29.3993 31.3637 25.6198 33.8762 22.5894C35.3273 20.8279 36.2073 18.5737 36.2073 16.117C36.2073 10.5354 31.6795 6 26.0969 6C20.5144 6 16 10.5354 16 16.1237C16 23.5208 16.0134 30.9111 16.0134 38.3082C16.0134 46.5962 20.3061 54 30 54C37.7322 54 44 47.7233 44 39.9753C44 33.928 40.191 28.7852 34.8436 26.8144C30.356 26.2745 29.3887 32.018 31.5317 34.1372L31.5384 34.1305ZM34.6286 40.4409C35.1593 40.4409 35.5825 40.8661 35.5825 41.3993C35.5825 41.9325 35.1593 42.3577 34.6286 42.3577C34.0979 42.3577 33.6747 41.9325 33.6747 41.3993C33.6747 40.8661 34.0979 40.4409 34.6286 40.4409Z" fill="#2659E5"/>
</svg>
