<svg width="16" height="16" viewBox="0 0 16 16" fill="none" xmlns="http://www.w3.org/2000/svg">
<circle cx="8" cy="8" r="8" fill="#C2C3C7"/>
<path fill-rule="evenodd" clip-rule="evenodd" d="M4.80499 4.80548C4.96685 4.64362 5.22928 4.64362 5.39114 4.80548L11.1938 10.6081C11.3556 10.77 11.3556 11.0324 11.1938 11.1943C11.0319 11.3561 10.7695 11.3561 10.6076 11.1943L4.80499 5.39163C4.64313 5.22977 4.64313 4.96734 4.80499 4.80548Z" fill="white" stroke="white" stroke-width="0.5" stroke-linecap="round" stroke-linejoin="round"/>
<path fill-rule="evenodd" clip-rule="evenodd" d="M11.1938 4.80548C11.3556 4.96734 11.3556 5.22977 11.1938 5.39163L5.39114 11.1943C5.22928 11.3561 4.96685 11.3561 4.80499 11.1943C4.64313 11.0324 4.64313 10.77 4.80499 10.6081L10.6076 4.80548C10.7695 4.64362 11.0319 4.64362 11.1938 4.80548Z" fill="white" stroke="white" stroke-width="0.5" stroke-linecap="round" stroke-linejoin="round"/>
</svg>
