<svg width="41" height="40" viewBox="0 0 41 40" fill="none" xmlns="http://www.w3.org/2000/svg">
<path fill-rule="evenodd" clip-rule="evenodd" d="M20.5013 31.1665C26.6685 31.1665 31.668 26.167 31.668 19.9998C31.668 13.8327 26.6685 8.83317 20.5013 8.83317C14.3341 8.83317 9.33464 13.8327 9.33464 19.9998C9.33464 26.167 14.3341 31.1665 20.5013 31.1665ZM20.5013 33.3332C27.8651 33.3332 33.8346 27.3636 33.8346 19.9998C33.8346 12.636 27.8651 6.6665 20.5013 6.6665C13.1375 6.6665 7.16797 12.636 7.16797 19.9998C7.16797 27.3636 13.1375 33.3332 20.5013 33.3332Z" fill="#B5B5B5"/>
<path d="M21.603 15.5046C21.6179 14.8879 21.1221 14.3799 20.5052 14.3799C19.8883 14.3799 19.3925 14.8879 19.4074 15.5046L19.5373 20.8752C19.5501 21.4006 19.9796 21.8199 20.5052 21.8199C21.0308 21.8199 21.4603 21.4006 21.4731 20.8752L21.603 15.5046ZM19.2902 23.8899C19.2602 24.5799 19.8302 25.1349 20.5202 25.1199C21.1652 25.1349 21.7352 24.5799 21.7502 23.8899C21.7352 23.2299 21.1652 22.6749 20.5202 22.6899C19.8302 22.6749 19.2602 23.2299 19.2902 23.8899Z" fill="#B5B5B5"/>
</svg>
