<svg width="30" height="30" viewBox="0 0 30 30" fill="none" xmlns="http://www.w3.org/2000/svg">
<path d="M5.41425 15.0593L15 25L24.5858 15.0593C25.6514 13.9541 26.25 12.4554 26.25 10.8926C26.25 7.63819 23.706 5 20.5679 5C19.0609 5 17.6156 5.62083 16.55 6.72589L15 8.33334L13.45 6.72589C12.3844 5.62083 10.9391 5 9.43211 5C6.29396 5 3.75 7.63819 3.75 10.8926C3.75 12.4554 4.34865 13.9541 5.41425 15.0593Z" fill="#FF4A09"/>
<path fill-rule="evenodd" clip-rule="evenodd" d="M2.8125 10.8926C2.8125 7.15285 5.74435 4.0625 9.43211 4.0625C11.199 4.0625 12.8862 4.7907 14.1248 6.07512L14.1249 6.07514L15 6.98272L15.8751 6.07514L15.8752 6.07513C17.1137 4.7907 18.801 4.0625 20.5679 4.0625C24.2556 4.0625 27.1875 7.15284 27.1875 10.8926C27.1875 12.6932 26.4981 14.4267 25.2606 15.71L24.5858 15.0593L25.2606 15.71L15.6749 25.6508C15.4982 25.834 15.2546 25.9375 15 25.9375C14.7454 25.9375 14.5018 25.834 14.3251 25.6508L4.7394 15.71L4.73938 15.71C3.50195 14.4267 2.8125 12.6932 2.8125 10.8926ZM9.43211 5.9375C6.84357 5.9375 4.6875 8.12353 4.6875 10.8926C4.6875 12.2175 5.19535 13.4816 6.08912 14.4085L15 23.6494L23.9109 14.4085C24.8047 13.4816 25.3125 12.2175 25.3125 10.8926C25.3125 8.12353 23.1564 5.9375 20.5679 5.9375C19.3208 5.9375 18.1175 6.45094 17.2249 7.37663C17.2249 7.37664 17.2249 7.37664 17.2248 7.37665L15.6749 8.98408C15.4982 9.16732 15.2546 9.27084 15 9.27084C14.7454 9.27084 14.5018 9.16732 14.3251 8.98408L12.7752 7.37665C12.7752 7.37665 12.7751 7.37664 12.7751 7.37663C11.8825 6.45094 10.6792 5.9375 9.43211 5.9375Z" fill="#FF4A09"/>
</svg>
