<svg width="12" height="13" viewBox="0 0 12 13" fill="none" xmlns="http://www.w3.org/2000/svg">
<path fill-rule="evenodd" clip-rule="evenodd" d="M7.81807 1.0945C7.51287 1.01282 7.19089 1.12286 6.98621 1.37874L3.65421 5.5442V11.9321H9.37497C9.77087 11.9321 10.1117 11.6327 10.1894 11.2167L10.9867 6.94506C11.0894 6.39438 10.6964 5.88061 10.1723 5.88061H7.14232C6.95854 5.88061 6.78969 5.77223 6.70298 5.59861C6.61626 5.42499 6.62577 5.21432 6.72771 5.05047L8.33939 2.46002C8.65795 1.94795 8.40695 1.25227 7.84977 1.10301L7.81807 1.0945ZM2.65761 11.9321V5.88062L0.996602 5.88062V11.9321H2.65761ZM2.92672 4.81272L6.22953 0.683754C6.67992 0.120708 7.38848 -0.12133 8.05991 0.0585173L8.09148 0.0669855C9.31719 0.395443 9.86939 1.92589 9.16865 3.05234L8.07341 4.81271H10.1723C11.3252 4.81271 12.19 5.94297 11.9639 7.15448L11.1666 11.4261C10.9958 12.3413 10.2459 13 9.37497 13H0.498301C0.223097 13 0 12.7609 0 12.466V5.34666C0 5.20505 0.0524998 5.06923 0.14595 4.9691C0.2394 4.86896 0.366145 4.81271 0.498304 4.81271L2.92672 4.81272Z" fill="#969696"/>
</svg>
