<svg width="24" height="24" viewBox="0 0 24 24" fill="none" xmlns="http://www.w3.org/2000/svg">
<path fill-rule="evenodd" clip-rule="evenodd" d="M12 2H5C3.89543 2 3 2.89543 3 4V20C3 21.1046 3.89543 22 5 22H17C18.1046 22 19 21.1046 19 20V9L12 2Z" fill="#B6C7F6"/>
<path d="M13.0032 8.99986C12.4504 8.99994 12.0025 8.55152 12.0031 7.99875L12.0097 2.01056L19.0034 8.99904L13.0032 8.99986Z" fill="#2659E5"/>
<path d="M6 12H14" stroke="#F7F7F7" stroke-width="1.5" stroke-linecap="round"/>
<path d="M6 15H12" stroke="#F7F7F7" stroke-width="1.5" stroke-linecap="round"/>
<path d="M6 18H10" stroke="#F7F7F7" stroke-width="1.5" stroke-linecap="round"/>
<path d="M12.2031 20.0236V16.5378C12.2031 16.2726 12.3085 16.0182 12.496 15.8307L17.5463 10.7804C17.6496 10.6771 17.7779 10.5956 17.9163 10.5487C21.9135 9.19563 22.1781 12.0366 21.767 13.8665C21.7288 14.0363 21.6384 14.1883 21.5153 14.3113L15.996 19.8307C15.8085 20.0182 15.5541 20.1236 15.2889 20.1236H12.3031C12.2479 20.1236 12.2031 20.0788 12.2031 20.0236Z" fill="#2659E5"/>
</svg>
