<svg width="24" height="24" viewBox="0 0 24 24" fill="none" xmlns="http://www.w3.org/2000/svg">
<path d="M10.9903 2.7376C11.7876 1.81994 13.2124 1.81994 14.0097 2.7376L14.7224 3.55782C15.1749 4.07867 15.864 4.32946 16.5455 4.22136L17.6186 4.05113C18.8193 3.86067 19.9108 4.77653 19.9317 5.992L19.9504 7.07842C19.9623 7.7683 20.3289 8.40335 20.9204 8.75858L21.8519 9.31798C22.8941 9.94384 23.1415 11.347 22.3763 12.2916L21.6922 13.1358C21.2579 13.672 21.1306 14.3941 21.3554 15.0464L21.7094 16.0737C22.1054 17.2231 21.393 18.457 20.1996 18.6887L19.133 18.8957C18.4556 19.0272 17.8939 19.4986 17.6468 20.1428L17.2576 21.1573C16.8222 22.2923 15.4833 22.7796 14.4203 22.19L13.47 21.663C12.8666 21.3283 12.1334 21.3283 11.53 21.663L10.5797 22.19C9.51665 22.7796 8.17775 22.2923 7.74237 21.1573L7.35323 20.1428C7.10611 19.4986 6.54438 19.0272 5.86704 18.8957L4.80038 18.6887C3.607 18.457 2.89459 17.2231 3.29064 16.0737L3.64464 15.0464C3.86944 14.3941 3.74211 13.672 3.30775 13.1358L2.62375 12.2916C1.85848 11.347 2.1059 9.94384 3.14807 9.31798L4.07958 8.75858C4.6711 8.40335 5.03775 7.7683 5.04962 7.07842L5.06832 5.992C5.08925 4.77653 6.18073 3.86067 7.38137 4.05113L8.45453 4.22136C9.136 4.32946 9.82506 4.07867 10.2776 3.55782L10.9903 2.7376Z" fill="#B6C7F6"/>
<circle cx="10" cy="10" r="2" fill="#2659E5"/>
<circle cx="15" cy="15" r="2" fill="#2659E5"/>
<path d="M9.5 15.5L16 9" stroke="#F7F7F7" stroke-width="1.5" stroke-linecap="round"/>
</svg>
