<svg width="24" height="24" viewBox="0 0 24 24" fill="none" xmlns="http://www.w3.org/2000/svg">
<path d="M10 9C10 7.89543 10.8954 7 12 7H16.7778C20.2142 7 23 9.78578 23 13.2222C23 13.6518 22.6518 14 22.2222 14H12C10.8954 14 10 13.1046 10 12V9Z" fill="#2659E5"/>
<path d="M10 16C10 17.1046 10.8954 18 12 18H21C22.1046 18 23 17.1046 23 16V13H12C10.8954 13 10 13.8954 10 15V16Z" fill="#F0F4FE"/>
<path d="M1 5C1 3.89543 1.89543 3 3 3H14C15.1046 3 16 3.89543 16 5V18H3C1.89543 18 1 17.1046 1 16V5Z" fill="#B6C7F6"/>
<circle cx="18" cy="18" r="3" fill="#2659E5"/>
<circle cx="6" cy="18" r="3" fill="#2659E5"/>
<path d="M4 8H12" stroke="#F7F7F7" stroke-width="1.5" stroke-linecap="round"/>
<path d="M4 11H10" stroke="#F7F7F7" stroke-width="1.5" stroke-linecap="round"/>
</svg>
