<?xml version="1.0" standalone="no"?>
<!DOCTYPE svg PUBLIC "-//W3C//DTD SVG 20010904//EN"
 "http://www.w3.org/TR/2001/REC-SVG-20010904/DTD/svg10.dtd">
<svg version="1.0" xmlns="http://www.w3.org/2000/svg"
 width="200.000000pt" height="200.000000pt" viewBox="0 0 200.000000 200.000000"
 preserveAspectRatio="xMidYMid meet">
<metadata>
Created by potrace 1.14, written by Peter Selinger 2001-2017
</metadata>
<g transform="translate(0.000000,200.000000) scale(0.100000,-0.100000)"
fill="#000000" stroke="none">
<path d="M578 1665 c-104 -27 -178 -87 -225 -183 -24 -49 -28 -68 -27 -137 1
-102 33 -174 105 -239 68 -62 134 -85 229 -82 149 4 267 97 304 238 62 237
-154 463 -386 403z"/>
<path d="M1300 1666 c-256 -52 -350 -368 -163 -552 68 -67 121 -88 228 -88
106 -1 161 21 232 93 59 59 84 119 90 211 7 102 -20 175 -91 246 -81 80 -185
112 -296 90z"/>
<path d="M312 621 l1 -329 330 0 329 0 -5 43 c-14 109 -106 225 -209 262 -47
17 -63 33 -33 33 28 0 109 47 149 86 45 44 83 121 92 187 l7 47 -332 0 -331 0
2 -329z m385 -7 c-3 -3 -12 -4 -19 -1 -8 3 -5 6 6 6 11 1 17 -2 13 -5z"/>
<path d="M1030 620 l0 -330 28 5 c71 12 90 19 131 42 74 43 125 106 151 190
11 32 19 49 19 38 1 -36 58 -139 97 -177 50 -47 127 -85 187 -91 l47 -6 0 330
0 329 -330 0 -330 0 0 -330z"/>
</g>
</svg>
