<?xml version="1.0" standalone="no"?>
<!DOCTYPE svg PUBLIC "-//W3C//DTD SVG 20010904//EN"
 "http://www.w3.org/TR/2001/REC-SVG-20010904/DTD/svg10.dtd">
<svg version="1.0" xmlns="http://www.w3.org/2000/svg"
 width="700.000000pt" height="700.000000pt" viewBox="0 0 700.000000 700.000000"
 preserveAspectRatio="xMidYMid meet">
<metadata>
Created by potrace 1.14, written by Peter Selinger 2001-2017
</metadata>
<g transform="translate(0.000000,700.000000) scale(0.100000,-0.100000)"
fill="#000000" stroke="none">
<path d="M3080 5733 c-135 -9 -247 -41 -380 -109 -224 -115 -397 -335 -469
-593 l-26 -96 0 -1205 c0 -1199 0 -1206 22 -1330 54 -307 159 -545 328 -744
163 -192 439 -335 725 -376 124 -18 341 -14 455 8 261 51 478 166 666 352 267
265 399 599 386 975 -12 348 -137 638 -381 881 -116 116 -215 186 -364 257
-100 48 -107 49 -171 45 -212 -15 -343 -190 -329 -440 5 -75 11 -99 39 -156
29 -58 45 -75 115 -127 416 -309 618 -622 641 -992 5 -83 3 -103 -8 -108 -48
-17 -276 -47 -400 -52 -381 -15 -673 87 -915 319 -192 185 -339 468 -418 808
-119 508 -95 1164 64 1778 41 158 116 388 154 475 l21 49 38 -38 c21 -22 45
-52 54 -68 71 -136 82 -354 27 -544 -6 -20 4 -16 74 32 131 88 289 128 425
106 86 -13 163 -48 216 -95 l42 -38 -103 -42 c-212 -86 -371 -181 -491 -294
-164 -155 -238 -316 -239 -519 0 -166 53 -284 184 -408 94 -90 195 -154 350
-220 l79 -34 -46 53 c-143 163 -131 332 38 545 34 42 129 147 212 232 83 85
172 185 198 222 220 309 234 723 35 1049 -65 106 -207 248 -307 307 -166 98
-358 146 -541 135z"/>
<path d="M3872 2505 c-63 -53 -30 -155 51 -155 76 0 118 97 64 148 -38 36 -78
38 -115 7z"/>
</g>
</svg>
