<svg width="18" height="18" viewBox="0 0 18 18" fill="none" xmlns="http://www.w3.org/2000/svg">
<circle cx="9" cy="9" r="9" fill="#202122"/>
<path fill-rule="evenodd" clip-rule="evenodd" d="M5.84294 5.29995C5.69301 5.15002 5.44993 5.15002 5.3 5.29995C5.15007 5.44988 5.15007 5.69297 5.3 5.8429L8.457 8.99998L5.29995 12.1571C5.15002 12.307 5.15002 12.5501 5.29995 12.7001C5.44988 12.85 5.69296 12.85 5.84289 12.7001L8.99995 9.54293L12.157 12.7C12.3069 12.8499 12.55 12.8499 12.6999 12.7C12.8498 12.5501 12.8498 12.307 12.6999 12.157L9.54289 8.99998L12.6998 5.84295C12.8498 5.69302 12.8498 5.44993 12.6998 5.3C12.5499 5.15007 12.3068 5.15007 12.1569 5.3L8.99995 8.45702L5.84294 5.29995Z" fill="#F7F9FA"/>
<path d="M5.84294 5.29995L5.91365 5.22924L5.91365 5.22924L5.84294 5.29995ZM5.3 5.8429L5.22928 5.91361H5.22928L5.3 5.8429ZM8.457 8.99998L8.52771 9.07069L8.59842 8.99998L8.52771 8.92927L8.457 8.99998ZM5.29995 12.1571L5.22924 12.0864H5.22924L5.29995 12.1571ZM5.29995 12.7001L5.37066 12.6293H5.37066L5.29995 12.7001ZM5.84289 12.7001L5.77218 12.6293H5.77218L5.84289 12.7001ZM8.99995 9.54293L9.07066 9.47222L8.99995 9.40151L8.92923 9.47222L8.99995 9.54293ZM12.157 12.7L12.2277 12.6293L12.157 12.7ZM12.6999 12.7L12.7706 12.7707L12.6999 12.7ZM12.6999 12.157L12.6292 12.2278L12.6999 12.157ZM9.54289 8.99998L9.47218 8.92927L9.40147 8.99998L9.47218 9.07069L9.54289 8.99998ZM12.6998 5.84295L12.7706 5.91366L12.6998 5.84295ZM12.6998 5.3L12.7706 5.22929V5.22929L12.6998 5.3ZM12.1569 5.3L12.0862 5.22929V5.22929L12.1569 5.3ZM8.99995 8.45702L8.92923 8.52773L8.99995 8.59844L9.07066 8.52773L8.99995 8.45702ZM5.37071 5.37066C5.48158 5.25978 5.66135 5.25978 5.77223 5.37066L5.91365 5.22924C5.72467 5.04025 5.41827 5.04025 5.22928 5.22924L5.37071 5.37066ZM5.37071 5.77219C5.25983 5.66131 5.25983 5.48154 5.37071 5.37066L5.22928 5.22924C5.0403 5.41822 5.0403 5.72463 5.22928 5.91361L5.37071 5.77219ZM8.52771 8.92927L5.37071 5.77219L5.22928 5.91361L8.38629 9.07069L8.52771 8.92927ZM5.37066 12.2278L8.52771 9.07069L8.38629 8.92927L5.22924 12.0864L5.37066 12.2278ZM5.37066 12.6293C5.25978 12.5185 5.25978 12.3387 5.37066 12.2278L5.22924 12.0864C5.04025 12.2754 5.04025 12.5818 5.22924 12.7708L5.37066 12.6293ZM5.77218 12.6293C5.6613 12.7402 5.48154 12.7402 5.37066 12.6293L5.22924 12.7708C5.41822 12.9597 5.72462 12.9597 5.9136 12.7708L5.77218 12.6293ZM8.92923 9.47222L5.77218 12.6293L5.9136 12.7708L9.07066 9.61364L8.92923 9.47222ZM12.2277 12.6293L9.07066 9.47222L8.92923 9.61364L12.0862 12.7707L12.2277 12.6293ZM12.6292 12.6293C12.5183 12.7402 12.3385 12.7402 12.2277 12.6293L12.0862 12.7707C12.2752 12.9597 12.5816 12.9597 12.7706 12.7707L12.6292 12.6293ZM12.6292 12.2278C12.7401 12.3386 12.7401 12.5184 12.6292 12.6293L12.7706 12.7707C12.9596 12.5817 12.9596 12.2753 12.7706 12.0863L12.6292 12.2278ZM9.47218 9.07069L12.6292 12.2278L12.7706 12.0863L9.6136 8.92927L9.47218 9.07069ZM12.6291 5.77224L9.47218 8.92927L9.6136 9.07069L12.7706 5.91366L12.6291 5.77224ZM12.6291 5.37071C12.74 5.48159 12.74 5.66136 12.6291 5.77224L12.7706 5.91366C12.9595 5.72468 12.9595 5.41827 12.7706 5.22929L12.6291 5.37071ZM12.2276 5.37071C12.3385 5.25983 12.5183 5.25983 12.6291 5.37071L12.7706 5.22929C12.5816 5.0403 12.2752 5.0403 12.0862 5.22929L12.2276 5.37071ZM9.07066 8.52773L12.2276 5.37071L12.0862 5.22929L8.92923 8.38631L9.07066 8.52773ZM5.77223 5.37066L8.92923 8.52773L9.07066 8.38631L5.91365 5.22924L5.77223 5.37066Z" fill="#F7F9FA"/>
</svg>
