<svg width="49" height="48" viewBox="0 0 49 48" fill="none" xmlns="http://www.w3.org/2000/svg">
<path fill-rule="evenodd" clip-rule="evenodd" d="M24.5 37.4C31.9006 37.4 37.9 31.4006 37.9 24C37.9 16.5994 31.9006 10.6 24.5 10.6C17.0994 10.6 11.1 16.5994 11.1 24C11.1 31.4006 17.0994 37.4 24.5 37.4ZM24.5 40C33.3366 40 40.5 32.8366 40.5 24C40.5 15.1634 33.3366 8 24.5 8C15.6634 8 8.5 15.1634 8.5 24C8.5 32.8366 15.6634 40 24.5 40Z" fill="#67696F"/>
<path d="M25.8197 18.6055C25.8376 17.8654 25.2426 17.2559 24.5023 17.2559V17.2559C23.7621 17.2559 23.1671 17.8654 23.185 18.6055L23.3409 25.0502C23.3562 25.6807 23.8716 26.1839 24.5023 26.1839V26.1839C25.133 26.1839 25.6485 25.6807 25.6638 25.0502L25.8197 18.6055ZM23.0443 28.6679C23.0083 29.4959 23.6923 30.1619 24.5203 30.1439C25.2943 30.1619 25.9783 29.4959 25.9963 28.6679C25.9783 27.8759 25.2943 27.2099 24.5203 27.2279C23.6923 27.2099 23.0083 27.8759 23.0443 28.6679Z" fill="#67696F"/>
</svg>
