<svg width="36" height="36" viewBox="0 0 36 36" fill="none" xmlns="http://www.w3.org/2000/svg">
<circle cx="18" cy="18" r="18" fill="#5B5D62" fill-opacity="0.7"/>
<path d="M21.5776 14.4118H22.6148C23.5451 14.4118 24.3201 15.1153 24.3974 16.0299L24.9937 23.0887C25.0806 24.1176 24.2576 25 23.2111 25H12.7889C11.7424 25 10.9194 24.1176 11.0063 23.0887L11.6026 16.0299C11.6798 15.1153 12.4548 14.4118 13.3852 14.4118H14.4224M21.5776 14.4118H14.4224M21.5776 14.4118V13.5294C21.5776 12.5933 21.2007 11.6956 20.5297 11.0337C19.8588 10.3718 18.9489 10 18 10C17.0511 10 16.1412 10.3718 15.4703 11.0337C14.7993 11.6956 14.4224 12.5933 14.4224 13.5294V14.4118M21.5776 14.4118V17.9412M14.4224 14.4118V17.9412" stroke="white" stroke-width="1.2" stroke-linecap="round" stroke-linejoin="round"/>
</svg>
