<svg width="22" height="23" viewBox="0 0 22 23" fill="none" xmlns="http://www.w3.org/2000/svg">
<path d="M15.5997 7.58823H16.9333C18.1295 7.58823 19.1259 8.47936 19.2252 9.6379L19.9919 18.5791C20.1037 19.8822 19.0455 21 17.7 21H4.30002C2.95451 21 1.89636 19.8822 2.0081 18.5791L2.77473 9.6379C2.87406 8.47936 3.87051 7.58823 5.06665 7.58823H6.40026M15.5997 7.58823H6.40026M15.5997 7.58823V6.47059C15.5997 5.28491 15.1151 4.1478 14.2525 3.3094C13.3899 2.47101 12.22 2 11 2C9.78003 2 8.61011 2.47101 7.74749 3.3094C6.88488 4.1478 6.40026 5.28491 6.40026 6.47059V7.58823M15.5997 7.58823V12.0588M6.40026 7.58823V12.0588" stroke="#202122" stroke-width="1.5" stroke-linecap="round" stroke-linejoin="round"/>
</svg>
