<svg width="16" height="17" viewBox="0 0 16 17" fill="none" xmlns="http://www.w3.org/2000/svg">
<path d="M11.5776 5.41176H12.6148C13.5451 5.41176 14.3201 6.11528 14.3974 7.02992L14.9937 14.0887C15.0806 15.1176 14.2576 16 13.2111 16H2.78891C1.7424 16 0.919394 15.1176 1.0063 14.0887L1.60257 7.02992C1.67982 6.11528 2.45484 5.41176 3.38517 5.41176H4.42242M11.5776 5.41176H4.42242M11.5776 5.41176V4.52941C11.5776 3.59335 11.2007 2.69564 10.5297 2.03374C9.85881 1.37185 8.94885 1 7.99999 1C7.05113 1 6.1412 1.37185 5.47027 2.03374C4.79935 2.69564 4.42242 3.59335 4.42242 4.52941V5.41176M11.5776 5.41176V8.94118M4.42242 5.41176V8.94118" stroke="white" stroke-width="1.2" stroke-linecap="round" stroke-linejoin="round"/>
</svg>
