<svg width="19" height="20" viewBox="0 0 19 20" fill="none" xmlns="http://www.w3.org/2000/svg">
<path fill-rule="evenodd" clip-rule="evenodd" d="M5.16475 5.66475C5.38442 5.44508 5.74058 5.44508 5.96025 5.66475L13.8352 13.5398C14.0549 13.7594 14.0549 14.1156 13.8352 14.3352C13.6156 14.5549 13.2594 14.5549 13.0398 14.3352L5.16475 6.46025C4.94508 6.24058 4.94508 5.88442 5.16475 5.66475Z" fill="#C2C3C7"/>
<path fill-rule="evenodd" clip-rule="evenodd" d="M13.8352 5.66475C14.0549 5.88442 14.0549 6.24058 13.8352 6.46025L5.96025 14.3352C5.74058 14.5549 5.38442 14.5549 5.16475 14.3352C4.94508 14.1156 4.94508 13.7594 5.16475 13.5398L13.0398 5.66475C13.2594 5.44508 13.6156 5.44508 13.8352 5.66475Z" fill="#C2C3C7"/>
</svg>
