<svg width="22" height="22" viewBox="0 0 22 22" fill="none" xmlns="http://www.w3.org/2000/svg">
<path d="M11 13.0625C12.1391 13.0625 13.0625 12.1391 13.0625 11C13.0625 9.86091 12.1391 8.9375 11 8.9375C9.86091 8.9375 8.9375 9.86091 8.9375 11C8.9375 12.1391 9.86091 13.0625 11 13.0625Z" fill="#A2A4A9"/>
<path d="M11 19.9375C12.1391 19.9375 13.0625 19.0141 13.0625 17.875C13.0625 16.7359 12.1391 15.8125 11 15.8125C9.86091 15.8125 8.9375 16.7359 8.9375 17.875C8.9375 19.0141 9.86091 19.9375 11 19.9375Z" fill="#A2A4A9"/>
<path d="M11 6.1875C12.1391 6.1875 13.0625 5.26409 13.0625 4.125C13.0625 2.98591 12.1391 2.0625 11 2.0625C9.86091 2.0625 8.9375 2.98591 8.9375 4.125C8.9375 5.26409 9.86091 6.1875 11 6.1875Z" fill="#A2A4A9"/>
</svg>
