<svg width="32" height="32" viewBox="0 0 32 32" fill="none" xmlns="http://www.w3.org/2000/svg">
<rect x="1" y="1" width="30" height="30" rx="15" fill="#6085EC"/>
<path d="M18.4147 11.7554L8.84766 21.346V23.3849H10.8867L20.4773 13.8178L18.4147 11.7554Z" fill="white"/>
<path fill-rule="evenodd" clip-rule="evenodd" d="M17.7372 11.1593C17.9115 10.9845 18.1945 10.9844 18.369 11.1589L20.8432 13.6328C21.0177 13.8074 21.0175 14.0904 20.8428 14.2647L11.9618 23.1239C11.7944 23.2909 11.5676 23.3847 11.3311 23.3847H8.88509C8.73713 23.3847 8.61719 23.2648 8.61719 23.1168V20.6709C8.61719 20.4345 8.71097 20.2077 8.87797 20.0403L17.7372 11.1593ZM18.0545 13.3701L10.4032 21.0402V21.5987H10.9618L18.6319 13.9475L18.0545 13.3701Z" fill="white"/>
<path d="M19.9626 9.18803L18.8823 10.2675C18.7079 10.4418 18.7078 10.7246 18.8822 10.899L21.1046 13.1217C21.279 13.2961 21.5617 13.2961 21.7361 13.1217L22.8165 12.0411C23.1829 11.6745 23.3887 11.1773 23.3887 10.659C23.3887 10.1406 23.1829 9.64351 22.8165 9.27685L22.7277 9.18803C22.5462 9.00643 22.3306 8.86238 22.0934 8.7641C21.8562 8.66582 21.6019 8.61523 21.3451 8.61523C21.0884 8.61523 20.8341 8.66582 20.5969 8.7641C20.3597 8.86238 20.1441 9.00643 19.9626 9.18803Z" fill="white"/>
<rect x="1" y="1" width="30" height="30" rx="15" stroke="white" stroke-width="2"/>
</svg>
