<svg width="41" height="40" viewBox="0 0 41 40" fill="none" xmlns="http://www.w3.org/2000/svg">
<path fill-rule="evenodd" clip-rule="evenodd" d="M20.4974 31.168C26.6646 31.168 31.6641 26.1685 31.6641 20.0013C31.6641 13.8341 26.6646 8.83464 20.4974 8.83464C14.3302 8.83464 9.33073 13.8341 9.33073 20.0013C9.33073 26.1685 14.3302 31.168 20.4974 31.168ZM20.4974 33.3346C27.8612 33.3346 33.8307 27.3651 33.8307 20.0013C33.8307 12.6375 27.8612 6.66797 20.4974 6.66797C13.1336 6.66797 7.16406 12.6375 7.16406 20.0013C7.16406 27.3651 13.1336 33.3346 20.4974 33.3346Z" fill="#B5B5B5"/>
<path d="M21.5952 15.5075C21.6101 14.8908 21.1143 14.3828 20.4974 14.3828C19.8805 14.3828 19.3847 14.8908 19.3996 15.5075L19.5295 20.8781C19.5422 21.4035 19.9718 21.8228 20.4974 21.8228C21.0229 21.8228 21.4525 21.4035 21.4652 20.8781L21.5952 15.5075ZM19.2824 23.8928C19.2524 24.5828 19.8224 25.1378 20.5124 25.1228C21.1574 25.1378 21.7274 24.5828 21.7424 23.8928C21.7274 23.2328 21.1574 22.6778 20.5124 22.6928C19.8224 22.6778 19.2524 23.2328 19.2824 23.8928Z" fill="#B5B5B5"/>
</svg>
