<svg width="19" height="24" viewBox="0 0 19 24" fill="none" xmlns="http://www.w3.org/2000/svg">
<path d="M0 20.5528C0 17.1547 2.72601 14.4 6.08872 14.4H12.9113C16.274 14.4 19 17.1547 19 20.5528C19 21.9545 18.0609 23.1715 16.6926 23.4006C14.9798 23.6874 12.4388 24 9.5 24C6.56122 24 4.02016 23.6874 2.30748 23.4006C0.939028 23.1715 0 21.9545 0 20.5528Z" fill="#B6C7F6"/>
<path d="M3.5625 6C3.5625 2.6863 6.22081 0 9.5 0C12.7792 0 15.4375 2.6863 15.4375 6C15.4375 9.3137 12.7792 12 9.5 12C6.22081 12 3.5625 9.3137 3.5625 6Z" fill="#2659E5"/>
</svg>
