<svg width="25" height="24" viewBox="0 0 25 24" fill="none" xmlns="http://www.w3.org/2000/svg">
<path fill-rule="evenodd" clip-rule="evenodd" d="M9.49999 9.87286L12.5 11.1367L15.5 9.87286L18.5 11.1367L21.5042 9.8711C21.6038 9.9113 21.7027 9.95023 21.8 9.98725V22.1772H23.3C23.797 22.1772 24.2 22.5853 24.2 23.0886C24.2 23.5919 23.797 24 23.3 24H17.3V18.2278C17.3 16.8855 16.2255 15.7974 14.9 15.7974C13.5745 15.7974 12.5 16.8855 12.5 18.2278V24H1.7C1.20294 24 0.8 23.5919 0.8 23.0886C0.8 22.5853 1.20294 22.1772 1.7 22.1772H3.2V9.98724C3.29736 9.95023 3.39614 9.9113 3.49581 9.8711L6.49999 11.1367L9.49999 9.87286ZM7.7 13.367C7.03726 13.367 6.5 13.9111 6.5 14.5822V15.7974C6.5 16.4686 7.03726 17.0126 7.7 17.0126H8.9C9.56274 17.0126 10.1 16.4686 10.1 15.7974V14.5822C10.1 13.9111 9.56274 13.367 8.9 13.367H7.7Z" fill="#B6C7F6"/>
<path fill-rule="evenodd" clip-rule="evenodd" d="M0.8 23.0886C0.8 22.5853 1.20294 22.1772 1.7 22.1772H23.3C23.797 22.1772 24.2 22.5853 24.2 23.0886C24.2 23.5919 23.797 24 23.3 24H1.7C1.20294 24 0.8 23.5919 0.8 23.0886Z" fill="#2659E5"/>
<path d="M6.5 14.5822C6.5 13.9111 7.03726 13.367 7.7 13.367H8.9C9.56274 13.367 10.1 13.9111 10.1 14.5822V15.7974C10.1 16.4686 9.56274 17.0126 8.9 17.0126H7.7C7.03726 17.0126 6.5 16.4686 6.5 15.7974V14.5822Z" fill="#2659E5"/>
<path d="M0.880785 3.06718C1.81008 1.65558 2.27473 0.949787 2.95803 0.529575C3.06957 0.460983 3.1847 0.398583 3.30294 0.342651C4.02723 0 4.86488 0 6.54019 0H18.4598C20.1351 0 20.9727 0 21.697 0.342651C21.8152 0.398583 21.9304 0.460983 22.0419 0.529575C22.7253 0.949787 23.19 1.65558 24.1192 3.06718C24.2971 3.33733 24.386 3.4724 24.4366 3.62374C24.4449 3.6487 24.4525 3.67393 24.4592 3.69938C24.5 3.85374 24.5 4.01608 24.5 4.34075V5.8722C24.5 7.19011 24.5 7.84906 24.1428 8.20595C24.034 8.31459 23.9059 8.40122 23.765 8.46115C23.3024 8.65807 22.7016 8.40496 21.5 7.89877L18.5 9.16258L15.5 7.89877L12.5 9.16258L9.5 7.89877L6.5 9.16258L3.5 7.89877C2.2984 8.40496 1.6976 8.65807 1.235 8.46115C1.09418 8.40122 0.965953 8.31459 0.85721 8.20595C0.5 7.84906 0.5 7.19011 0.5 5.8722V4.34075C0.5 4.01608 0.5 3.85374 0.540789 3.69938C0.547516 3.67393 0.555058 3.6487 0.563404 3.62374C0.614015 3.4724 0.702938 3.33733 0.880785 3.06718Z" fill="#2659E5"/>
<path d="M12.5 18.2278C12.5 16.8855 13.5745 15.7974 14.9 15.7974C16.2255 15.7974 17.3 16.8855 17.3 18.2278V24H12.5V18.2278Z" fill="#2659E5"/>
</svg>
