<svg width="33" height="26" viewBox="0 0 33 26" fill="none" xmlns="http://www.w3.org/2000/svg">
<path fill-rule="evenodd" clip-rule="evenodd" d="M4.58984 3.90918C4.58984 3.35689 5.03756 2.90918 5.58984 2.90918H27.408C27.9603 2.90918 28.408 3.35689 28.408 3.90918C28.408 4.46146 27.9603 4.90918 27.408 4.90918H5.58984C5.03756 4.90918 4.58984 4.46146 4.58984 3.90918Z" fill="#2659E5"/>
<path fill-rule="evenodd" clip-rule="evenodd" d="M16.5 0C17.0523 0 17.5 0.447715 17.5 1V25C17.5 25.5523 17.0523 26 16.5 26C15.9477 26 15.5 25.5523 15.5 25V1C15.5 0.447715 15.9477 0 16.5 0Z" fill="#2659E5"/>
<path fill-rule="evenodd" clip-rule="evenodd" d="M6.31769 3.63623C6.69646 3.63623 7.04273 3.85023 7.21212 4.18902L12.303 14.3708C12.55 14.8648 12.3498 15.4655 11.8558 15.7125C11.3618 15.9595 10.7612 15.7592 10.5142 15.2653L6.31769 6.8723L2.12121 15.2653C1.87422 15.7592 1.27355 15.9595 0.779568 15.7125C0.285589 15.4655 0.0853651 14.8648 0.332354 14.3708L5.42326 4.18902C5.59266 3.85023 5.93892 3.63623 6.31769 3.63623Z" fill="#B6C7F6"/>
<path fill-rule="evenodd" clip-rule="evenodd" d="M26.681 3.63623C27.0597 3.63623 27.406 3.85023 27.5754 4.18902L32.6663 14.3708C32.9133 14.8648 32.7131 15.4655 32.2191 15.7125C31.7251 15.9595 31.1244 15.7592 30.8775 15.2653L26.681 6.8723L22.4845 15.2653C22.2375 15.7592 21.6368 15.9595 21.1428 15.7125C20.6489 15.4655 20.4486 14.8648 20.6956 14.3708L25.7865 4.18902C25.9559 3.85023 26.3022 3.63623 26.681 3.63623Z" fill="#B6C7F6"/>
<path d="M11.4084 14.8184H1.22656C1.95384 19.182 5.5902 19.182 6.31747 19.182C9.80838 19.182 11.166 16.2729 11.4084 14.8184Z" fill="#2659E5"/>
<path fill-rule="evenodd" clip-rule="evenodd" d="M0.654303 14.3336C0.796806 14.1654 1.0061 14.0684 1.22657 14.0684H11.4084C11.6289 14.0684 11.8381 14.1654 11.9807 14.3336C12.1232 14.5018 12.1844 14.7242 12.1482 14.9417C12.0074 15.7863 11.5555 17.0133 10.6423 18.0432C9.70935 19.0954 8.29974 19.932 6.31748 19.932H6.30985C5.92109 19.932 4.68612 19.9321 3.43661 19.3074C2.13249 18.6553 0.890115 17.3617 0.486773 14.9417C0.450529 14.7242 0.511801 14.5018 0.654303 14.3336ZM2.17227 15.5684C2.59659 16.9177 3.37359 17.5988 4.10743 17.9657C5.03145 18.4277 5.9702 18.432 6.31748 18.432C7.82613 18.432 8.84076 17.814 9.51994 17.0481C9.9368 16.5779 10.2289 16.0485 10.4183 15.5684H2.17227Z" fill="#2659E5"/>
<path d="M31.7717 14.8184H21.5898C22.3171 19.182 25.9535 19.182 26.6808 19.182C30.1717 19.182 31.5292 16.2729 31.7717 14.8184Z" fill="#2659E5"/>
<path fill-rule="evenodd" clip-rule="evenodd" d="M21.0176 14.3336C21.1601 14.1654 21.3694 14.0684 21.5898 14.0684H31.7717C31.9921 14.0684 32.2014 14.1654 32.3439 14.3336C32.4864 14.5018 32.5477 14.7242 32.5115 14.9417C32.3707 15.7863 31.9188 17.0133 31.0056 18.0432C30.0726 19.0954 28.663 19.932 26.6808 19.932H26.6731C26.2844 19.932 25.0494 19.9321 23.7999 19.3074C22.4958 18.6553 21.2534 17.3617 20.8501 14.9417C20.8138 14.7242 20.8751 14.5018 21.0176 14.3336ZM22.5356 15.5684C22.9599 16.9177 23.7369 17.5988 24.4707 17.9657C25.3947 18.4277 26.3335 18.432 26.6808 18.432C28.1894 18.432 29.204 17.814 29.8832 17.0481C30.3001 16.5779 30.5921 16.0485 30.7815 15.5684H22.5356Z" fill="#2659E5"/>
</svg>
