<svg width="23" height="22" viewBox="0 0 23 22" fill="none" xmlns="http://www.w3.org/2000/svg">
<path d="M0.5 2C0.5 0.89543 1.39543 0 2.5 0H8.5C9.60457 0 10.5 0.895431 10.5 2V8C10.5 9.10457 9.60457 10 8.5 10H2.5C1.39543 10 0.5 9.10457 0.5 8V2Z" fill="#81838A"/>
<path d="M0.5 14C0.5 12.8954 1.39543 12 2.5 12H8.5C9.60457 12 10.5 12.8954 10.5 14V20C10.5 21.1046 9.60457 22 8.5 22H2.5C1.39543 22 0.5 21.1046 0.5 20V14Z" fill="#D4D5D8"/>
<path d="M12.5 2C12.5 0.89543 13.3954 0 14.5 0H20.5C21.6046 0 22.5 0.895431 22.5 2V8C22.5 9.10457 21.6046 10 20.5 10H14.5C13.3954 10 12.5 9.10457 12.5 8V2Z" fill="#D4D5D8"/>
<path d="M12.5 14C12.5 12.8954 13.3954 12 14.5 12H20.5C21.6046 12 22.5 12.8954 22.5 14V20C22.5 21.1046 21.6046 22 20.5 22H14.5C13.3954 22 12.5 21.1046 12.5 20V14Z" fill="#81838A"/>
</svg>
