<svg width="25" height="24" viewBox="0 0 25 24" fill="none" xmlns="http://www.w3.org/2000/svg">
<path d="M9.92752 1.10118L4.85504 4.07229C2.48368 5.46127 1.298 6.15576 0.649 7.27476C0 8.39377 0 9.74361 0 12.4433V14.2377C0 18.8396 0 21.1405 1.46446 22.5702C2.92894 23.9999 5.28595 23.9999 10 23.9999H15C19.714 23.9999 22.0711 23.9999 23.5355 22.5702C25 21.1405 25 18.8396 25 14.2377V12.4433C25 9.74361 25 8.39377 24.351 7.27476C23.702 6.15576 22.5164 5.46128 20.145 4.07229L15.0725 1.10118C13.8191 0.367062 13.1925 0 12.5 0C11.8075 0 11.1809 0.367063 9.92752 1.10118Z" fill="#B6C7F6"/>
<path d="M8.75 17.8986C8.75 16.7615 8.75 16.1929 8.9403 15.7444C9.19404 15.1464 9.68072 14.6713 10.2933 14.4235C10.7527 14.2378 11.3351 14.2378 12.5 14.2378C13.6649 14.2378 14.2472 14.2378 14.7067 14.4235C15.3192 14.6713 15.806 15.1464 16.0597 15.7444C16.25 16.1929 16.25 16.7615 16.25 17.8986V24H8.75V17.8986Z" fill="#2659E5"/>
</svg>
