<svg width="18" height="32" viewBox="0 0 18 32" fill="none" xmlns="http://www.w3.org/2000/svg">
<path fill-rule="evenodd" clip-rule="evenodd" d="M9.98896 18.6554C13.6252 21.1415 14.9727 23.7708 14.856 26.5042C0.621883 29.8233 0.518234 12.2775 4.39204 3.22684C5.57102 4.02517 5.76967 6.14248 5.14779 7.96041C6.49088 6.59371 9.0691 6.11645 10.4942 7.67406C7.59645 8.71102 4.49568 10.4942 4.6857 13.9218C4.8239 15.8526 6.54271 17.2497 9.01727 18.1478C6.09789 15.614 9.87668 13.1843 11.4918 11.2362C12.4247 10.1038 12.9904 8.65461 12.9904 7.07531C12.9904 3.48717 10.0797 0.571533 6.49088 0.571533C2.90211 0.571533 0 3.48717 0 7.07965C0 11.8349 0.00863724 16.5858 0.00863724 21.3411C0.00863724 26.6691 2.76823 31.4287 9 31.4287C13.9707 31.4287 18 27.3936 18 22.4128C18 18.5253 15.5513 15.2191 12.1137 13.9522C9.22889 13.6051 8.60701 17.2974 9.98465 18.6598L9.98896 18.6554ZM11.9755 22.7121C12.3167 22.7121 12.5888 22.9855 12.5888 23.3282C12.5888 23.671 12.3167 23.9443 11.9755 23.9443C11.6344 23.9443 11.3623 23.671 11.3623 23.3282C11.3623 22.9855 11.6344 22.7121 11.9755 22.7121Z" fill="#2659E5"/>
</svg>
