<svg width="22" height="24" viewBox="0 0 22 24" fill="none" xmlns="http://www.w3.org/2000/svg">
<path fill-rule="evenodd" clip-rule="evenodd" d="M6.92261 4.73861C5.95604 5.46566 5.34469 6.54817 5.34469 8.05263C5.34469 10.2549 4.53357 12.6617 3.7393 14.5052C3.28361 15.5628 4.08897 16.7368 5.11027 16.7368H16.8897C17.911 16.7368 18.7164 15.5629 18.2607 14.5052C17.4663 12.6617 16.6553 10.2549 16.6553 8.05263C16.6553 6.54817 16.0439 5.46566 15.0774 4.73861C14.0858 3.99274 12.6592 3.57895 11 3.57895C9.34076 3.57895 7.9142 3.99274 6.92261 4.73861ZM15.0395 18.3158H16.8897C19.2176 18.3158 20.5938 15.8513 19.7499 13.8925C18.9789 12.1032 18.2711 9.93286 18.2711 8.05263C18.2711 6.06897 17.4356 4.51991 16.063 3.48741C14.7153 2.47372 12.9103 2 11 2C9.08971 2 7.28466 2.47372 5.93702 3.48741C4.56437 4.51991 3.72889 6.06897 3.72889 8.05263C3.72889 9.93286 3.02103 12.1032 2.25011 13.8925C1.40618 15.8513 2.78237 18.3158 5.11027 18.3158H6.9605V18.5789C6.9605 19.6906 7.43425 20.5818 8.2221 21.1744C8.98494 21.7482 9.98208 22 11 22C12.0179 22 13.0151 21.7482 13.7779 21.1744C14.5657 20.5818 15.0395 19.6906 15.0395 18.5789V18.3158ZM13.4237 18.3158H8.5763V18.5789C8.5763 19.2114 8.82594 19.636 9.20769 19.9232C9.61445 20.2291 10.2331 20.4211 11 20.4211C11.7669 20.4211 12.3855 20.2291 12.7923 19.9232C13.1741 19.636 13.4237 19.2114 13.4237 18.5789V18.3158Z" fill="#202122"/>
</svg>
