<svg width="24" height="24" viewBox="0 0 24 24" fill="none" xmlns="http://www.w3.org/2000/svg">
<path fill-rule="evenodd" clip-rule="evenodd" d="M11.5 8C11.8242 8 12.087 8.26279 12.087 8.58696V11.913H15.413C15.7372 11.913 16 12.1758 16 12.5C16 12.8242 15.7372 13.087 15.413 13.087H12.087V16.413C12.087 16.7372 11.8242 17 11.5 17C11.1758 17 10.913 16.7372 10.913 16.413V13.087H7.58696C7.26279 13.087 7 12.8242 7 12.5C7 12.1758 7.26279 11.913 7.58696 11.913H10.913V8.58696C10.913 8.26279 11.1758 8 11.5 8Z" fill="#A2A4A9"/>
</svg>
