<svg width="24" height="24" viewBox="0 0 24 24" fill="none" xmlns="http://www.w3.org/2000/svg">
<path fill-rule="evenodd" clip-rule="evenodd" d="M19.6401 9.98234C19.5955 10.07 19.5318 10.1466 19.4536 10.2066C19.4348 10.2188 19.4012 10.2344 19.3518 10.2505C19.401 10.2344 19.4345 10.2188 19.4532 10.2067C19.5314 10.1467 19.5952 10.0701 19.6397 9.98245C19.6842 9.89481 19.7084 9.79838 19.7105 9.70024V5.98327C19.7105 5.80829 19.6405 5.64048 19.5159 5.51675C19.3914 5.39302 19.2224 5.32351 19.0463 5.32351C18.9823 5.32351 18.9194 5.33266 18.8591 5.35024C18.9195 5.33259 18.9826 5.3234 19.0466 5.3234C19.2228 5.3234 19.3917 5.39291 19.5163 5.51664C19.6409 5.64037 19.7108 5.80818 19.7108 5.98316V9.70013C19.7088 9.79827 19.6846 9.8947 19.6401 9.98234ZM18.4054 7.28822C18.3666 7.23581 18.3272 7.18387 18.2871 7.13242C18.0943 6.88481 17.8872 6.64845 17.6668 6.42455C16.1781 4.94585 14.1591 4.11512 12.0538 4.11512C11.2828 4.11512 10.5233 4.22655 9.79722 4.44043C10.5232 4.22662 11.2825 4.11523 12.0534 4.11523C14.1587 4.11523 16.1778 4.94596 17.6664 6.42466C17.9328 6.69524 18.1797 6.98401 18.4055 7.28885L18.4054 7.28822ZM15.1368 9.04439C15.1986 9.02616 15.2629 9.01698 15.3277 9.01724L15.3285 9.01725L17.9424 9.02189C17.9424 9.02185 17.9423 9.02182 17.9423 9.02178L15.3285 9.01713L15.3281 9.01713C15.2632 9.01687 15.1987 9.02609 15.1368 9.04439ZM10.1662 5.70595C9.11408 6.01621 8.15159 6.58311 7.36947 7.36063C6.38188 8.34243 5.73263 9.60963 5.5148 10.9806C5.29697 12.3515 5.52175 13.7557 6.15692 14.9919C6.79208 16.2281 7.80501 17.2328 9.05046 17.8619C10.2959 18.491 11.7099 18.7122 13.0897 18.4938C13.3794 18.448 13.6644 18.3833 13.9431 18.3005C13.6643 18.3833 13.3791 18.4481 13.0894 18.4939C11.7095 18.7123 10.2955 18.4911 9.05009 17.862C7.80464 17.2329 6.79171 16.2282 6.15654 14.992C5.52138 13.7558 5.29659 12.3516 5.51442 10.9807C5.73225 9.60974 6.38151 8.34254 7.36909 7.36074C8.1513 6.58312 9.11394 6.01619 10.1662 5.70595ZM19.0315 12.6123C19.128 12.584 19.2306 12.5776 19.3316 12.5948C19.5053 12.6244 19.66 12.7213 19.7618 12.8642C19.8635 13.0071 19.9039 13.1843 19.8742 13.3568C19.5978 14.9569 18.8261 16.4316 17.6664 17.5756C16.7259 18.5098 15.5736 19.1854 14.3217 19.5563C15.5738 19.1854 16.7262 18.5098 17.6668 17.5755C18.8265 16.4315 19.5982 14.9568 19.8746 13.3567C19.9043 13.1842 19.8639 13.007 19.7621 12.8641C19.6604 12.7212 19.5056 12.6243 19.332 12.5947C19.2308 12.5775 19.1281 12.5839 19.0315 12.6123ZM18.6491 10.4518L15.3285 10.4518C15.226 10.4522 15.1241 10.4324 15.0293 10.3936C14.9344 10.3548 14.8482 10.2977 14.7756 10.2256C14.7031 10.1535 14.6456 10.0679 14.6065 9.97363C14.5675 9.87952 14.5476 9.77867 14.548 9.67689C14.5476 9.57512 14.5675 9.47427 14.6065 9.38016C14.6456 9.2859 14.7031 9.20026 14.7756 9.12818C14.8482 9.0561 14.9344 8.999 15.0293 8.96018C15.1241 8.9214 15.226 8.90163 15.3285 8.90201L17.7503 8.90632C17.1234 7.76818 16.1649 6.84265 14.9985 6.25251C13.7753 5.63364 12.3862 5.4154 11.0304 5.62909C9.6746 5.84277 8.42174 6.47741 7.45145 7.442C6.48117 8.40659 5.84329 9.6516 5.62928 10.9985C5.41526 12.3454 5.63611 13.725 6.26015 14.9396C6.88418 16.1541 7.87936 17.1412 9.10299 17.7593C10.3266 18.3774 11.7159 18.5947 13.0715 18.3801C14.4272 18.1656 15.68 17.5298 16.6496 16.5645C17.5974 15.6292 18.2272 14.4227 18.4506 13.1142C18.4856 12.9116 18.6002 12.7311 18.7691 12.6124C18.9381 12.4937 19.1476 12.4465 19.3515 12.4812C19.5555 12.516 19.7372 12.6298 19.8567 12.7976C19.9763 12.9654 20.0237 13.1736 19.9888 13.3762C19.7083 14.9998 18.9253 16.4962 17.7486 17.657C16.2382 19.1572 14.1898 20 12.0538 20C9.91782 20 7.8693 19.1571 6.35891 17.6569C4.84853 16.1566 4 14.1217 4 12C4 9.87827 4.84853 7.84344 6.35891 6.34315C7.8693 4.84286 9.91782 4 12.0538 4C14.1898 4 16.2384 4.84286 17.7487 6.34314L17.7497 6.34407C17.9374 6.53477 18.1156 6.73439 18.2837 6.9422L18.2665 5.98521V5.98316C18.2665 5.77765 18.3487 5.58055 18.495 5.43523C18.6413 5.28992 18.8397 5.20828 19.0466 5.20828C19.2535 5.20828 19.452 5.28992 19.5983 5.43523C19.7445 5.58055 19.8267 5.77765 19.8267 5.98316L19.8268 9.70013L19.8267 9.70254C19.8243 9.81788 19.7959 9.93121 19.7435 10.0342C19.6912 10.1372 19.6165 10.2275 19.5246 10.298L19.517 10.3029C19.4654 10.3364 19.3681 10.3725 19.2309 10.4006C19.0899 10.4295 18.8975 10.4518 18.6491 10.4518Z" fill="#C2C3C7"/>
</svg>
