<svg width="15" height="15" viewBox="0 0 15 15" fill="none" xmlns="http://www.w3.org/2000/svg">
<mask id="path-1-inside-1_27_26849" fill="white">
<path d="M2.79427 2.79743C1.52322 4.06847 0.809158 5.79238 0.809158 7.58992C0.809158 9.38745 1.52322 11.1114 2.79427 12.3824C4.06532 13.6535 5.78923 14.3675 7.58676 14.3675C9.3843 14.3675 11.1082 13.6535 12.3793 12.3824C13.3694 11.3991 14.0283 10.1315 14.2643 8.75609C14.2897 8.6078 14.2552 8.45549 14.1683 8.33265C14.0814 8.20982 13.9493 8.12654 13.801 8.10112C13.6527 8.07569 13.5004 8.11022 13.3776 8.1971C13.2548 8.28398 13.1715 8.4161 13.1461 8.56439C12.9518 9.70944 12.4044 10.7651 11.5805 11.5837C10.7378 12.4281 9.6494 12.9841 8.47126 13.1718C7.29313 13.3595 6.08582 13.1694 5.02242 12.6286C3.95902 12.0879 3.09416 11.2243 2.55184 10.1617C2.00951 9.09908 1.81759 7.89204 2.00358 6.71363C2.18957 5.53523 2.74392 4.44598 3.58714 3.60206C4.43037 2.75814 5.51917 2.20289 6.69742 2.01594C7.87567 1.82899 9.08287 2.01992 10.1459 2.56137C11.209 3.10282 12.0733 3.96697 12.6149 5.02993L10.3824 5.02593C10.3078 5.02563 10.2339 5.04009 10.165 5.06848C10.0961 5.09687 10.0334 5.13863 9.98069 5.19136C9.92797 5.24408 9.88621 5.30672 9.85782 5.37566C9.82943 5.4446 9.81497 5.51849 9.81527 5.59305C9.81497 5.66761 9.82943 5.74149 9.85782 5.81043C9.88621 5.87937 9.92797 5.94201 9.98069 5.99474C10.0334 6.04746 10.0961 6.08922 10.165 6.11761C10.2339 6.146 10.3078 6.16046 10.3824 6.16016L13.2179 6.16016C13.327 6.2262 13.4561 6.25121 13.582 6.23072C13.7079 6.21023 13.8223 6.14557 13.9049 6.04833C13.9717 5.99679 14.0261 5.93093 14.0641 5.8556C14.1021 5.78027 14.1227 5.69737 14.1245 5.61301L14.1245 2.41802C14.1245 2.26761 14.0648 2.12337 13.9584 2.01701C13.8521 1.91066 13.7078 1.85091 13.5574 1.85091C13.407 1.85091 13.2628 1.91066 13.1564 2.01701C13.05 2.12337 12.9903 2.26761 12.9903 2.41802L13.0103 3.54026C12.8175 3.27823 12.6067 3.03001 12.3793 2.79743C11.1082 1.52638 9.3843 0.81231 7.58676 0.81231C5.78923 0.812311 4.06532 1.52638 2.79427 2.79743Z"/>
</mask>
<path d="M2.79427 2.79743C1.52322 4.06847 0.809158 5.79238 0.809158 7.58992C0.809158 9.38745 1.52322 11.1114 2.79427 12.3824C4.06532 13.6535 5.78923 14.3675 7.58676 14.3675C9.3843 14.3675 11.1082 13.6535 12.3793 12.3824C13.3694 11.3991 14.0283 10.1315 14.2643 8.75609C14.2897 8.6078 14.2552 8.45549 14.1683 8.33265C14.0814 8.20982 13.9493 8.12654 13.801 8.10112C13.6527 8.07569 13.5004 8.11022 13.3776 8.1971C13.2548 8.28398 13.1715 8.4161 13.1461 8.56439C12.9518 9.70944 12.4044 10.7651 11.5805 11.5837C10.7378 12.4281 9.6494 12.9841 8.47126 13.1718C7.29313 13.3595 6.08582 13.1694 5.02242 12.6286C3.95902 12.0879 3.09416 11.2243 2.55184 10.1617C2.00951 9.09908 1.81759 7.89204 2.00358 6.71363C2.18957 5.53523 2.74392 4.44598 3.58714 3.60206C4.43037 2.75814 5.51917 2.20289 6.69742 2.01594C7.87567 1.82899 9.08287 2.01992 10.1459 2.56137C11.209 3.10282 12.0733 3.96697 12.6149 5.02993L10.3824 5.02593C10.3078 5.02563 10.2339 5.04009 10.165 5.06848C10.0961 5.09687 10.0334 5.13863 9.98069 5.19136C9.92797 5.24408 9.88621 5.30672 9.85782 5.37566C9.82943 5.4446 9.81497 5.51849 9.81527 5.59305C9.81497 5.66761 9.82943 5.74149 9.85782 5.81043C9.88621 5.87937 9.92797 5.94201 9.98069 5.99474C10.0334 6.04746 10.0961 6.08922 10.165 6.11761C10.2339 6.146 10.3078 6.16046 10.3824 6.16016L13.2179 6.16016C13.327 6.2262 13.4561 6.25121 13.582 6.23072C13.7079 6.21023 13.8223 6.14557 13.9049 6.04833C13.9717 5.99679 14.0261 5.93093 14.0641 5.8556C14.1021 5.78027 14.1227 5.69737 14.1245 5.61301L14.1245 2.41802C14.1245 2.26761 14.0648 2.12337 13.9584 2.01701C13.8521 1.91066 13.7078 1.85091 13.5574 1.85091C13.407 1.85091 13.2628 1.91066 13.1564 2.01701C13.05 2.12337 12.9903 2.26761 12.9903 2.41802L13.0103 3.54026C12.8175 3.27823 12.6067 3.03001 12.3793 2.79743C11.1082 1.52638 9.3843 0.81231 7.58676 0.81231C5.78923 0.812311 4.06532 1.52638 2.79427 2.79743Z" fill="#D4D5D8"/>
<path d="M2.79427 2.79743L-0.0341548 -0.0310006L2.79427 2.79743ZM2.79427 12.3824L5.6227 9.55398L2.79427 12.3824ZM12.3793 12.3824L9.55081 9.55396L9.56061 9.54423L12.3793 12.3824ZM14.2643 8.75609L18.2068 9.43194L18.2067 9.43247L14.2643 8.75609ZM13.1461 8.56439L9.20239 7.89539L9.20356 7.88854L13.1461 8.56439ZM11.5805 11.5837L8.74908 8.75824L8.75519 8.75211L8.76133 8.74601L11.5805 11.5837ZM12.6149 5.02993L16.1789 3.2139L19.1484 9.04162L12.6077 9.02992L12.6149 5.02993ZM10.3824 5.02593L10.3752 9.02594L10.366 9.0259L10.3824 5.02593ZM9.81527 5.59305L13.8152 5.57664L13.8153 5.59304L13.8152 5.60944L9.81527 5.59305ZM10.3824 6.16016L10.366 2.16019L10.3742 2.16016L10.3824 2.16016L10.3824 6.16016ZM13.2179 6.16016L13.2179 2.16016L14.3342 2.16016L15.2892 2.73819L13.2179 6.16016ZM13.9049 6.04833L10.8552 3.46L11.1278 3.13878L11.4614 2.88141L13.9049 6.04833ZM14.1245 5.61301L18.1245 5.61301L18.1245 5.65499L18.1236 5.69695L14.1245 5.61301ZM14.1245 2.41802L18.1245 2.41802L18.1245 2.41802L14.1245 2.41802ZM12.9903 2.41802L8.99093 2.48918L8.9903 2.4536L8.9903 2.41802L12.9903 2.41802ZM13.0103 3.54026L17.0096 3.4691L17.2332 16.0319L9.78809 5.9104L13.0103 3.54026ZM12.3793 2.79743L15.2077 -0.0310023L15.2236 -0.0151112L15.2393 0.000957862L12.3793 2.79743ZM5.6227 5.62585C5.1018 6.14675 4.80916 6.85325 4.80916 7.58992H-3.19084C-3.19084 4.73152 -2.05535 1.99019 -0.0341548 -0.0310006L5.6227 5.62585ZM4.80916 7.58992C4.80916 8.32658 5.1018 9.03308 5.6227 9.55398L-0.0341538 15.2108C-2.05535 13.1896 -3.19084 10.4483 -3.19084 7.58992H4.80916ZM5.6227 9.55398C6.1436 10.0749 6.8501 10.3675 7.58676 10.3675L7.58677 18.3675C4.72837 18.3675 1.98704 17.232 -0.0341538 15.2108L5.6227 9.55398ZM7.58676 10.3675C8.32343 10.3675 9.02993 10.0749 9.55083 9.55398L15.2077 15.2108C13.1865 17.232 10.4452 18.3675 7.58677 18.3675L7.58676 10.3675ZM9.56061 9.54423C9.96049 9.1471 10.2266 8.63517 10.3219 8.07971L18.2067 9.43247C17.8301 11.6278 16.7783 13.651 15.1979 15.2206L9.56061 9.54423ZM10.3218 8.08024C10.168 8.97755 10.3769 9.89923 10.9027 10.6425L17.434 6.0228C18.1335 7.01174 18.4115 8.23805 18.2068 9.43194L10.3218 8.08024ZM10.9027 10.6425C11.4284 11.3858 12.2278 11.8898 13.1252 12.0436L14.4769 4.15863C15.6708 4.3633 16.7345 5.03386 17.434 6.0228L10.9027 10.6425ZM13.1252 12.0436C14.0225 12.1974 14.9442 11.9885 15.6875 11.4628L11.0677 4.93144C12.0567 4.23195 13.283 3.95396 14.4769 4.15863L13.1252 12.0436ZM15.6875 11.4628C16.4307 10.937 16.9347 10.1376 17.0885 9.24024L9.20356 7.88854C9.40823 6.69463 10.0788 5.63093 11.0677 4.93144L15.6875 11.4628ZM17.0897 9.23339C16.7559 11.2009 15.8154 13.0148 14.3997 14.4213L8.76133 8.74601C8.99346 8.5154 9.14767 8.21799 9.2024 7.89539L17.0897 9.23339ZM14.4119 14.4091C12.9725 15.8516 11.1132 16.8013 9.10068 17.122L7.84185 9.22164C8.18561 9.16686 8.5032 9.00464 8.74908 8.75824L14.4119 14.4091ZM9.10068 17.122C7.08818 17.4426 5.02582 17.1178 3.20931 16.1941L6.83552 9.06314C7.14581 9.22093 7.49808 9.27641 7.84185 9.22164L9.10068 17.122ZM3.20931 16.1941C1.3928 15.2704 -0.0845707 13.7952 -1.01097 11.98L6.11464 8.34332C6.27288 8.65338 6.52524 8.90536 6.83552 9.06314L3.20931 16.1941ZM-1.01097 11.98C-1.93737 10.1649 -2.26522 8.103 -1.94751 6.09003L5.95467 7.33724C5.9004 7.68108 5.9564 8.03327 6.11464 8.34332L-1.01097 11.98ZM-1.94751 6.09003C-1.62981 4.07706 -0.682857 2.21639 0.757557 0.774789L6.41673 6.42932C6.17069 6.67557 6.00894 6.99339 5.95467 7.33724L-1.94751 6.09003ZM0.757557 0.774789C2.19797 -0.666807 4.05787 -1.61528 6.07058 -1.93464L7.32426 5.96652C6.98047 6.02107 6.66277 6.18308 6.41673 6.42932L0.757557 0.774789ZM6.07058 -1.93464C8.08329 -2.254 10.1454 -1.92784 11.9613 -1.00293L8.33048 6.12567C8.0203 5.96768 7.66806 5.91197 7.32426 5.96652L6.07058 -1.93464ZM11.9613 -1.00293C13.7773 -0.0780154 15.2537 1.39814 16.1789 3.2139L9.05089 6.84596C8.89285 6.5358 8.64066 6.28365 8.33048 6.12567L11.9613 -1.00293ZM12.6077 9.02992L10.3752 9.02593L10.3895 1.02594L12.622 1.02993L12.6077 9.02992ZM10.366 9.0259C10.8195 9.02776 11.2688 8.93981 11.6882 8.76713L8.64184 1.36983C9.19905 1.14036 9.79618 1.0235 10.3988 1.02597L10.366 9.0259ZM11.6882 8.76713C12.1075 8.59444 12.4885 8.34044 12.8091 8.01978L7.15227 2.36293C7.57837 1.93682 8.08463 1.5993 8.64184 1.36983L11.6882 8.76713ZM12.8091 8.01978C13.1298 7.69912 13.3838 7.31814 13.5565 6.89881L6.15917 3.85251C6.38864 3.2953 6.72616 2.78904 7.15227 2.36293L12.8091 8.01978ZM13.5565 6.89881C13.7291 6.47949 13.8171 6.03013 13.8152 5.57664L5.81531 5.60945C5.81283 5.00685 5.9297 4.40972 6.15917 3.85251L13.5565 6.89881ZM13.8152 5.60944C13.8171 5.15596 13.7291 4.7066 13.5565 4.28728L6.15917 7.33359C5.9297 6.77637 5.81283 6.17925 5.8153 5.57665L13.8152 5.60944ZM13.5565 4.28728C13.3838 3.86795 13.1298 3.48697 12.8091 3.16631L7.15227 8.82316C6.72616 8.39706 6.38864 7.8908 6.15917 7.33359L13.5565 4.28728ZM12.8091 3.16631C12.4885 2.84564 12.1075 2.59165 11.6882 2.41896L8.64184 9.81626C8.08463 9.58679 7.57837 9.24927 7.15227 8.82316L12.8091 3.16631ZM11.6882 2.41896C11.2688 2.24628 10.8195 2.15833 10.366 2.16019L10.3988 10.1601C9.79618 10.1626 9.19906 10.0457 8.64184 9.81626L11.6882 2.41896ZM10.3824 2.16016L13.2179 2.16016L13.2179 10.1602L10.3824 10.1602L10.3824 2.16016ZM15.2892 2.73819C14.5849 2.3119 13.7518 2.15042 12.9393 2.28269L14.2247 10.1788C13.1604 10.352 12.0692 10.1405 11.1467 9.58213L15.2892 2.73819ZM12.9393 2.28269C12.1267 2.41497 11.3879 2.83235 10.8552 3.46L16.9545 8.63666C16.2568 9.45879 15.289 10.0055 14.2247 10.1788L12.9393 2.28269ZM11.4614 2.88141C11.0551 3.19491 10.7242 3.59546 10.493 4.05365L17.6352 7.65754C17.328 8.2664 16.8883 8.79867 16.3483 9.21525L11.4614 2.88141ZM10.493 4.05365C10.2618 4.51183 10.1362 5.01599 10.1254 5.52908L18.1236 5.69695C18.1093 6.37875 17.9424 7.0487 17.6352 7.65754L10.493 4.05365ZM10.1245 5.61301L10.1245 2.41802L18.1245 2.41802L18.1245 5.61301L10.1245 5.61301ZM10.1245 2.41802C10.1245 3.32848 10.4862 4.20165 11.13 4.84544L16.7868 -0.811416C17.6433 0.0450854 18.1245 1.20675 18.1245 2.41802L10.1245 2.41802ZM11.13 4.84544C11.7738 5.48923 12.6469 5.85091 13.5574 5.85091L13.5574 -2.14909C14.7687 -2.14909 15.9303 -1.66791 16.7868 -0.811416L11.13 4.84544ZM13.5574 5.85091C14.4679 5.85091 15.341 5.48923 15.9848 4.84544L10.328 -0.811415C11.1845 -1.66791 12.3461 -2.14909 13.5574 -2.14909L13.5574 5.85091ZM15.9848 4.84544C16.6286 4.20165 16.9903 3.32848 16.9903 2.41802L8.9903 2.41802C8.9903 1.20674 9.47148 0.0450815 10.328 -0.811415L15.9848 4.84544ZM16.9897 2.34686L17.0096 3.4691L9.0109 3.61142L8.99093 2.48918L16.9897 2.34686ZM9.78809 5.9104C9.70596 5.79875 9.61612 5.69299 9.51922 5.59389L15.2393 0.000957862C15.5972 0.367024 15.9291 0.7577 16.2324 1.17012L9.78809 5.9104ZM9.55083 5.62585C9.02993 5.10495 8.32343 4.81231 7.58676 4.81231L7.58676 -3.18769C10.4452 -3.18769 13.1865 -2.0522 15.2077 -0.0310023L9.55083 5.62585ZM7.58676 4.81231C6.8501 4.81231 6.1436 5.10495 5.6227 5.62585L-0.0341548 -0.0310006C1.98704 -2.05219 4.72836 -3.18769 7.58676 -3.18769L7.58676 4.81231Z" fill="#D4D5D8" mask="url(#path-1-inside-1_27_26849)"/>
</svg>
