<svg width="24" height="24" viewBox="0 0 24 24" fill="none" xmlns="http://www.w3.org/2000/svg">
<path d="M19.7894 17.7354L17.0085 14.975C18.088 13.6281 18.6107 11.9185 18.4693 10.1977C18.3278 8.47689 17.533 6.87574 16.2481 5.72344C14.9633 4.57115 13.2861 3.9553 11.5615 4.00253C9.83683 4.04976 8.19582 4.75647 6.97586 5.97736C5.7559 7.19824 5.04972 8.8405 5.00253 10.5665C4.95533 12.2924 5.57072 13.9708 6.72213 15.2567C7.87355 16.5425 9.47349 17.338 11.193 17.4795C12.9124 17.6211 14.6208 17.0979 15.9667 16.0177L18.725 18.7781C18.7947 18.8484 18.8776 18.9042 18.9689 18.9423C19.0603 18.9804 19.1582 19 19.2572 19C19.3561 19 19.4541 18.9804 19.5455 18.9423C19.6368 18.9042 19.7197 18.8484 19.7894 18.7781C19.9245 18.6382 20 18.4513 20 18.2568C20 18.0622 19.9245 17.8753 19.7894 17.7354ZM11.7617 16.0177C10.7239 16.0177 9.70949 15.7097 8.84664 15.1327C7.9838 14.5558 7.31129 13.7357 6.91417 12.7762C6.51705 11.8167 6.41314 10.761 6.61559 9.7424C6.81804 8.72383 7.31776 7.78822 8.05155 7.05387C8.78534 6.31952 9.72025 5.81943 10.738 5.61682C11.7558 5.41421 12.8108 5.5182 13.7696 5.91562C14.7283 6.31305 15.5477 6.98607 16.1243 7.84957C16.7008 8.71307 17.0085 9.72827 17.0085 10.7668C17.0085 12.1594 16.4557 13.495 15.4718 14.4797C14.4878 15.4644 13.1532 16.0177 11.7617 16.0177Z" fill="#67696F"/>
</svg>
