<svg width="18" height="19" viewBox="0 0 18 19" fill="none" xmlns="http://www.w3.org/2000/svg">
<path d="M14.5418 12.2219C14.0241 12.2245 13.5136 12.3409 13.0479 12.5626C12.5822 12.7843 12.1733 13.1057 11.8513 13.503L6.79543 10.4054C6.97969 9.82256 6.97969 9.19876 6.79543 8.61595L11.8513 5.51836C12.3645 6.14107 13.086 6.56569 13.888 6.717C14.69 6.86831 15.5208 6.73654 16.2332 6.34503C16.9456 5.95353 17.4936 5.32755 17.7801 4.578C18.0667 3.82845 18.0732 3.00369 17.7987 2.24985C17.5242 1.496 16.9862 0.861709 16.2801 0.459341C15.5741 0.0569734 14.7455 -0.0875024 13.9411 0.0515069C13.1368 0.190516 12.4086 0.604038 11.8856 1.21882C11.3626 1.8336 11.0785 2.60996 11.0836 3.41037C11.0869 3.71347 11.1334 4.01463 11.2219 4.30508L6.16603 7.40267C5.71968 6.85201 5.10958 6.45106 4.4203 6.25541C3.73102 6.05975 2.9967 6.07909 2.31914 6.31073C1.64157 6.54237 1.05432 6.97484 0.63878 7.5482C0.223242 8.12156 0 8.8074 0 9.51066C0 10.2139 0.223242 10.8998 0.63878 11.4731C1.05432 12.0465 1.64157 12.479 2.31914 12.7106C2.9967 12.9422 3.73102 12.9616 4.4203 12.7659C5.10958 12.5703 5.71968 12.1693 6.16603 11.6186L11.2219 14.7162C11.1334 15.0067 11.0869 15.3078 11.0836 15.6109C11.0836 16.2812 11.2864 16.9365 11.6664 17.4938C12.0464 18.0511 12.5865 18.4855 13.2184 18.742C13.8503 18.9985 14.5456 19.0656 15.2165 18.9349C15.8873 18.8041 16.5035 18.4813 16.9871 18.0074C17.4708 17.5334 17.8001 16.9295 17.9335 16.2721C18.067 15.6147 17.9985 14.9333 17.7368 14.314C17.475 13.6947 17.0318 13.1655 16.4631 12.7931C15.8944 12.4207 15.2258 12.2219 14.5418 12.2219ZM14.5418 1.37694C14.9522 1.37694 15.3533 1.4962 15.6946 1.71963C16.0358 1.94307 16.3017 2.26065 16.4588 2.63221C16.6158 3.00377 16.6569 3.41263 16.5768 3.80707C16.4968 4.20152 16.2992 4.56384 16.009 4.84822C15.7188 5.1326 15.3491 5.32627 14.9466 5.40473C14.5441 5.48319 14.1269 5.44292 13.7478 5.28901C13.3686 5.13511 13.0446 4.87448 12.8166 4.54008C12.5886 4.20569 12.4669 3.81254 12.4669 3.41037C12.4669 2.87107 12.6855 2.35386 13.0746 1.97252C13.4637 1.59118 13.9915 1.37694 14.5418 1.37694ZM3.47555 11.5441C3.06517 11.5441 2.66401 11.4248 2.32279 11.2014C1.98157 10.978 1.71562 10.6604 1.55858 10.2888C1.40153 9.91726 1.36044 9.5084 1.4405 9.11396C1.52056 8.71951 1.71818 8.35719 2.00836 8.07281C2.29854 7.78843 2.66826 7.59476 3.07076 7.5163C3.47325 7.43784 3.89045 7.47811 4.26959 7.63201C4.64873 7.78592 4.97279 8.04655 5.20079 8.38095C5.42878 8.71534 5.55047 9.10849 5.55047 9.51066C5.55047 10.05 5.33187 10.5672 4.94274 10.9485C4.55362 11.3299 4.02586 11.5441 3.47555 11.5441ZM14.5418 17.6444C14.1314 17.6444 13.7303 17.5251 13.389 17.3017C13.0478 17.0782 12.7819 16.7607 12.6248 16.3891C12.4678 16.0175 12.4267 15.6087 12.5067 15.2142C12.5868 14.8198 12.7844 14.4575 13.0746 14.1731C13.3648 13.8887 13.7345 13.6951 14.137 13.6166C14.5395 13.5381 14.9567 13.5784 15.3358 13.7323C15.715 13.8862 16.039 14.1468 16.267 14.4812C16.495 14.8156 16.6167 15.2088 16.6167 15.6109C16.6167 16.1502 16.3981 16.6675 16.009 17.0488C15.6199 17.4301 15.0921 17.6444 14.5418 17.6444Z" fill="#202122"/>
</svg>
