<svg width="16" height="16" viewBox="0 0 16 16" fill="none" xmlns="http://www.w3.org/2000/svg">
<path d="M5 6.87549H5.00667M8 6.87549H8.00667M11 6.87549H11.0067M4.66667 11.751V13.2692C4.66667 13.6156 4.66667 13.7888 4.73949 13.8777C4.80282 13.9551 4.89885 14.0001 5.00036 14C5.11708 13.9999 5.25578 13.8917 5.53317 13.6753L7.12348 12.4347C7.44834 12.1813 7.61078 12.0546 7.79166 11.9645C7.95213 11.8845 8.12295 11.8261 8.29948 11.7908C8.49845 11.751 8.70646 11.751 9.1225 11.751H10.8C11.9201 11.751 12.4802 11.751 12.908 11.5384C13.2843 11.3514 13.5903 11.0531 13.782 10.6862C14 10.269 14 9.72288 14 8.63066V5.12031C14 4.0281 14 3.48199 13.782 3.06483C13.5903 2.69787 13.2843 2.39953 12.908 2.21256C12.4802 2 11.9201 2 10.8 2H5.2C4.0799 2 3.51984 2 3.09202 2.21256C2.71569 2.39953 2.40973 2.69787 2.21799 3.06483C2 3.48199 2 4.0281 2 5.12031V9.15072C2 9.75526 2 10.0575 2.06815 10.3055C2.25308 10.9785 2.79218 11.5042 3.48236 11.6845C3.7367 11.751 4.04669 11.751 4.66667 11.751ZM5.33333 6.87549C5.33333 7.055 5.1841 7.20052 5 7.20052C4.81591 7.20052 4.66667 7.055 4.66667 6.87549C4.66667 6.69598 4.81591 6.55046 5 6.55046C5.1841 6.55046 5.33333 6.69598 5.33333 6.87549ZM8.33333 6.87549C8.33333 7.055 8.1841 7.20052 8 7.20052C7.81591 7.20052 7.66667 7.055 7.66667 6.87549C7.66667 6.69598 7.81591 6.55046 8 6.55046C8.1841 6.55046 8.33333 6.69598 8.33333 6.87549ZM11.3333 6.87549C11.3333 7.055 11.1841 7.20052 11 7.20052C10.8159 7.20052 10.6667 7.055 10.6667 6.87549C10.6667 6.69598 10.8159 6.55046 11 6.55046C11.1841 6.55046 11.3333 6.69598 11.3333 6.87549Z" stroke="#C2C3C7" stroke-linecap="round" stroke-linejoin="round"/>
</svg>
