<svg width="160" height="160" viewBox="0 0 160 160" fill="none" xmlns="http://www.w3.org/2000/svg">
<rect width="160" height="160" rx="8" fill="#F7F7F7"/>
<path d="M90.625 57.3125H69.375C67.6146 57.3125 66.1875 58.7396 66.1875 60.5V77.5C66.1875 79.2604 67.6146 80.6875 69.375 80.6875H90.625C92.3854 80.6875 93.8125 79.2604 93.8125 77.5V60.5C93.8125 58.7396 92.3854 57.3125 90.625 57.3125Z" stroke="#81838A" stroke-width="1.5" stroke-linejoin="round"/>
<path d="M85.3125 65.8125C86.4861 65.8125 87.4375 64.8611 87.4375 63.6875C87.4375 62.5139 86.4861 61.5625 85.3125 61.5625C84.1389 61.5625 83.1875 62.5139 83.1875 63.6875C83.1875 64.8611 84.1389 65.8125 85.3125 65.8125Z" stroke="#81838A" stroke-width="1.5" stroke-miterlimit="10"/>
<path d="M83.1875 74.2986L77.1671 68.2895C76.784 67.9065 76.2691 67.6842 75.7276 67.6682C75.1861 67.6521 74.659 67.8435 74.2539 68.2031L66.1875 75.375M77.875 80.6875L86.0655 72.497C86.4401 72.1216 86.9415 71.8999 87.4712 71.8753C88.0009 71.8508 88.5206 72.0251 88.9283 72.3642L93.8125 76.4375" stroke="#81838A" stroke-width="1.5" stroke-linecap="round" stroke-linejoin="round"/>
<path d="M41.0312 96.168C41.0273 96.7812 41.1367 97.3887 41.3594 97.9902C41.582 98.5918 41.8945 99.1309 42.2969 99.6074C42.6992 100.08 43.1562 100.441 43.668 100.691L42.9766 101.582C42.4141 101.285 41.916 100.861 41.4824 100.311C41.0527 99.7559 40.7207 99.123 40.4863 98.4121C40.248 99.1699 39.9043 99.8457 39.4551 100.439C39.0098 101.029 38.4922 101.477 37.9023 101.781L37.2109 100.879C37.7383 100.625 38.207 100.25 38.6172 99.7539C39.0273 99.2578 39.3457 98.6953 39.5723 98.0664C39.8027 97.4375 39.918 96.8047 39.918 96.168V94.375H41.0312V96.168ZM44.4531 93.4961H45.5664V97.6797H47.2539V98.6289H45.5664V103.996H44.4531V93.4961ZM51.2884 95.6875C51.2884 96.1406 51.3939 96.5762 51.6048 96.9941C51.8197 97.4121 52.1244 97.7832 52.5189 98.1074C52.9173 98.4277 53.3822 98.6719 53.9134 98.8398L53.3392 99.707C52.7416 99.5117 52.2201 99.2168 51.7748 98.8223C51.3295 98.4277 50.9857 97.9648 50.7435 97.4336C50.5052 98.0117 50.1576 98.5156 49.7005 98.9453C49.2435 99.375 48.7064 99.6992 48.0892 99.918L47.515 99.0391C48.0502 98.8555 48.517 98.5938 48.9154 98.2539C49.3138 97.9102 49.6205 97.5156 49.8353 97.0703C50.0541 96.625 50.1634 96.1641 50.1634 95.6875V95.2305H47.808V94.3281H53.597V95.2305H51.2884V95.6875ZM49.2377 100.445H50.3627V102.871H56.4213V103.773H49.2377V100.445ZM54.9916 93.5078H56.1048V101.172H54.9916V93.5078ZM62.1902 93.6719C62.9792 93.6719 63.653 93.7402 64.2116 93.877C64.7702 94.0137 65.198 94.2188 65.4948 94.4922C65.7917 94.7617 65.9402 95.0898 65.9402 95.4766C65.9402 95.8672 65.7917 96.1992 65.4948 96.4727C65.198 96.7422 64.7702 96.9473 64.2116 97.0879C63.653 97.2246 62.9792 97.293 62.1902 97.293C61.4011 97.293 60.7253 97.2246 60.1628 97.0879C59.6042 96.9473 59.1765 96.7422 58.8796 96.4727C58.5866 96.1992 58.4402 95.8672 58.4402 95.4766C58.4402 95.0898 58.5866 94.7617 58.8796 94.4922C59.1765 94.2188 59.6042 94.0137 60.1628 93.877C60.7253 93.7402 61.4011 93.6719 62.1902 93.6719ZM57.4089 97.9375H66.9831V98.8281H57.4089V97.9375ZM58.5573 99.6367H65.7761V102.098H59.6589V103.035H66.0691V103.891H58.5691V101.289H64.6745V100.469H58.5573V99.6367ZM59.6003 95.4766C59.5964 95.8008 59.8171 96.0469 60.2624 96.2148C60.7077 96.3789 61.3503 96.4609 62.1902 96.4609C63.0378 96.4609 63.6843 96.3789 64.1296 96.2148C64.5749 96.0469 64.7956 95.8008 64.7917 95.4766C64.7956 95.1641 64.571 94.9219 64.1179 94.75C63.6687 94.5781 63.0261 94.4922 62.1902 94.4922C61.3581 94.4922 60.7175 94.5781 60.2683 94.75C59.8191 94.9219 59.5964 95.1641 59.6003 95.4766ZM79.5756 99.3438H69.9897V98.4297H79.5756V99.3438ZM71.1264 102.074C71.1264 101.672 71.2709 101.328 71.56 101.043C71.8491 100.754 72.267 100.535 72.8139 100.387C73.3608 100.238 74.0131 100.164 74.7709 100.164C75.5248 100.164 76.1713 100.238 76.7104 100.387C77.2534 100.535 77.6694 100.754 77.9584 101.043C78.2475 101.328 78.392 101.672 78.392 102.074C78.392 102.477 78.2475 102.82 77.9584 103.105C77.6694 103.391 77.2534 103.605 76.7104 103.75C76.1713 103.898 75.5248 103.973 74.7709 103.973C74.0131 103.973 73.3608 103.898 72.8139 103.75C72.267 103.605 71.8491 103.391 71.56 103.105C71.2709 102.82 71.1264 102.477 71.1264 102.074ZM71.185 93.8711H78.392V94.7852H72.2866V96.6133H78.4623V97.5156H71.185V93.8711ZM72.2514 102.074C72.2475 102.41 72.4643 102.668 72.9018 102.848C73.3393 103.023 73.9623 103.113 74.7709 103.117C75.5678 103.113 76.185 103.023 76.6225 102.848C77.06 102.668 77.2788 102.41 77.2788 102.074C77.2788 101.742 77.06 101.486 76.6225 101.307C76.185 101.123 75.5678 101.027 74.7709 101.02C73.9663 101.027 73.3432 101.123 72.9018 101.307C72.4643 101.486 72.2475 101.742 72.2514 102.074ZM89.5984 100.129H79.9891V99.2266H84.243V98.2305H81.2195V95.5586H87.2781V94.6211H81.1961V93.7422H88.3914V96.3789H82.3211V97.3633H88.6023V98.2305H85.3445V99.2266H89.5984V100.129ZM81.0672 100.867H88.45V103.914H87.325V101.758H81.0672V100.867ZM98.1916 97.75H99.8791V98.6758H98.1916V103.996H97.09V93.4961H98.1916V97.75ZM89.9533 95.1367H92.5431V93.6367H93.6564V95.1367H96.1759V96.0508H89.9533V95.1367ZM90.4923 99.2617C90.4923 98.793 90.6037 98.373 90.8263 98.002C91.0529 97.6309 91.3634 97.3418 91.758 97.1348C92.1564 96.9277 92.6056 96.8242 93.1056 96.8242C93.6017 96.8242 94.047 96.9277 94.4416 97.1348C94.84 97.3418 95.1525 97.6309 95.3791 98.002C95.6056 98.373 95.7189 98.793 95.7189 99.2617C95.7189 99.7344 95.6056 100.156 95.3791 100.527C95.1525 100.898 94.84 101.189 94.4416 101.4C94.047 101.607 93.6017 101.711 93.1056 101.711C92.6056 101.711 92.1564 101.607 91.758 101.4C91.3634 101.189 91.0529 100.898 90.8263 100.527C90.6037 100.156 90.4923 99.7344 90.4923 99.2617ZM91.5588 99.2617C91.5588 99.5625 91.6232 99.8281 91.7521 100.059C91.8849 100.289 92.0685 100.467 92.3029 100.592C92.5412 100.717 92.8088 100.777 93.1056 100.773C93.3986 100.777 93.6623 100.717 93.8966 100.592C94.131 100.467 94.3146 100.289 94.4474 100.059C94.5841 99.8281 94.6525 99.5625 94.6525 99.2617C94.6525 98.9688 94.5841 98.707 94.4474 98.4766C94.3146 98.2461 94.131 98.0664 93.8966 97.9375C93.6623 97.8047 93.3986 97.7383 93.1056 97.7383C92.8088 97.7383 92.5412 97.8047 92.3029 97.9375C92.0685 98.0664 91.8849 98.2461 91.7521 98.4766C91.6232 98.707 91.5588 98.9688 91.5588 99.2617ZM103.222 96.3672C103.222 96.9375 103.302 97.502 103.462 98.0605C103.623 98.6152 103.861 99.123 104.177 99.584C104.494 100.045 104.878 100.414 105.332 100.691L104.71 101.547C104.234 101.262 103.826 100.873 103.486 100.381C103.15 99.8848 102.888 99.3223 102.701 98.6934C102.505 99.377 102.226 99.9863 101.863 100.521C101.503 101.057 101.074 101.477 100.574 101.781L99.8823 100.949C100.363 100.66 100.773 100.275 101.113 99.7949C101.457 99.3145 101.714 98.7832 101.886 98.2012C102.062 97.6152 102.148 97.0195 102.144 96.4141V94.457H103.222V96.3672ZM104.195 97.1875H105.824V93.6953H106.878V103.48H105.824V98.1133H104.195V97.1875ZM107.992 93.4961H109.058V103.996H107.992V93.4961ZM119.643 102.684H110.034V101.758H112.331V99.0156C111.89 98.7734 111.548 98.4668 111.306 98.0957C111.063 97.7246 110.944 97.3086 110.948 96.8477C110.948 96.3047 111.112 95.8262 111.44 95.4121C111.768 94.998 112.225 94.6777 112.811 94.4512C113.401 94.2207 114.069 94.1055 114.815 94.1055C115.561 94.1055 116.229 94.2207 116.819 94.4512C117.409 94.6777 117.868 94.998 118.196 95.4121C118.528 95.8262 118.694 96.3047 118.694 96.8477C118.694 97.3047 118.577 97.7168 118.343 98.084C118.108 98.4473 117.776 98.75 117.347 98.9922V101.758H119.643V102.684ZM112.026 96.8477C112.026 97.2188 112.143 97.5449 112.378 97.8262C112.612 98.1074 112.94 98.3262 113.362 98.4824C113.784 98.6348 114.268 98.7109 114.815 98.7109C115.358 98.7109 115.841 98.6328 116.263 98.4766C116.688 98.3203 117.02 98.1035 117.259 97.8262C117.497 97.5449 117.616 97.2188 117.616 96.8477C117.616 96.4766 117.497 96.1523 117.259 95.875C117.02 95.5938 116.688 95.377 116.263 95.2246C115.841 95.0723 115.358 94.9961 114.815 94.9961C114.268 94.9961 113.784 95.0723 113.362 95.2246C112.94 95.377 112.612 95.5938 112.378 95.875C112.143 96.1523 112.026 96.4766 112.026 96.8477ZM116.222 101.758V99.4258C115.784 99.5273 115.315 99.5781 114.815 99.5781C114.323 99.5781 113.862 99.5273 113.433 99.4258V101.758H116.222ZM121.873 100.551H120.713L120.608 94.5156H121.979L121.873 100.551ZM120.467 102.262C120.467 102.109 120.504 101.969 120.578 101.84C120.653 101.711 120.752 101.609 120.877 101.535C121.006 101.457 121.147 101.418 121.299 101.418C121.448 101.418 121.584 101.455 121.709 101.529C121.838 101.604 121.94 101.705 122.014 101.834C122.092 101.963 122.131 102.102 122.131 102.25C122.131 102.398 122.092 102.537 122.014 102.666C121.94 102.791 121.838 102.893 121.709 102.971C121.584 103.045 121.448 103.082 121.299 103.082C121.151 103.082 121.012 103.045 120.883 102.971C120.758 102.896 120.656 102.797 120.578 102.672C120.504 102.547 120.467 102.41 120.467 102.262Z" fill="#81838A"/>
</svg>
