<svg width="32" height="32" viewBox="0 0 32 32" fill="none" xmlns="http://www.w3.org/2000/svg">
<path d="M15.9947 3C8.26662 3 2 7.97177 2 14.1072C2 18.074 4.6181 21.5489 8.56102 23.5218L7.14157 28.6258C7.14157 28.6258 7.11528 28.8638 7.26774 28.9537C7.4202 29.0436 7.60421 28.9749 7.60421 28.9749C8.04581 28.9114 12.7037 25.6163 13.5186 25.045C14.3229 25.1614 15.1588 25.2196 16.0053 25.2196C23.7334 25.2196 30 20.2478 30 14.1124C30 7.97706 23.7229 3 15.9947 3Z" fill="black"/>
<path d="M8.25837 17.9787C7.8115 17.9787 7.44876 17.6296 7.44876 17.2012V12.3722H6.18702C5.75067 12.3722 5.39844 12.0178 5.39844 11.5788C5.39844 11.1398 5.75593 10.7855 6.18702 10.7855H10.3245C10.7608 10.7855 11.113 11.1398 11.113 11.5788C11.113 12.0178 10.7556 12.3722 10.3245 12.3722H9.06273V17.2012C9.06273 17.6243 8.69472 17.9787 8.25311 17.9787H8.25837ZM15.3399 17.9681C15.0034 17.9681 14.7458 17.8306 14.6669 17.6084L14.2674 16.5506H11.807L11.4074 17.6084C11.3286 17.8306 11.071 17.9681 10.7345 17.9681C10.5558 17.9681 10.3823 17.9311 10.2193 17.8623C9.99851 17.7565 9.78297 17.4762 10.0301 16.7093L11.9595 11.5947C12.0961 11.2033 12.5115 10.8013 13.0372 10.7908C13.5629 10.7802 13.9835 11.2033 14.1149 11.5947L16.0443 16.7093C16.2914 17.4762 16.0759 17.7671 15.8551 17.8623C15.6973 17.9364 15.5186 17.9681 15.3399 17.9681ZM13.8415 15.112L13.0372 12.8059L12.2328 15.112H13.8415ZM17.3429 17.8623C16.9223 17.8623 16.57 17.5291 16.57 17.1218V11.5947C16.57 11.1451 16.9381 10.7802 17.3954 10.7802C17.8528 10.7802 18.2208 11.1504 18.2208 11.5947V16.3655H19.9347C20.3553 16.3655 20.7075 16.6987 20.7075 17.106C20.7075 17.5132 20.3605 17.8464 19.9347 17.8464L17.3429 17.8623ZM21.0177 17.1536V11.6C21.0177 11.1504 21.3857 10.7855 21.8273 10.7855C22.2689 10.7855 22.6369 11.1557 22.6369 11.6V13.3454L24.8975 11.0711C25.1463 10.8207 25.6168 10.8427 25.9016 11.1293C26.1692 11.3985 26.2388 11.8535 25.9595 12.1395L24.1089 13.9907L26.0961 16.6352C26.3632 16.9791 26.2984 17.5147 25.9384 17.7671C25.5836 18.0316 25.0622 17.9434 24.8081 17.6084L22.9155 15.0855L22.6369 15.3658V17.1377C22.6369 18.1931 21.0177 18.2337 21.0177 17.1536Z" fill="#FFE812"/>
</svg>
